<svg width="70" height="40" viewBox="0 0 64 34" fill="none" xmlns="http://www.w3.org/2000/svg">
<path fill-rule="evenodd" clip-rule="evenodd" d="M1.62025 24.5714L1.62025 32.4286L62.3797 32.4286V24.5714L1.62025 24.5714ZM0 32.4286C0 33.2964 0.725413 34 1.62025 34L62.3797 34C63.2746 34 64 33.2964 64 32.4286V24.5714C64 23.7036 63.2746 23 62.3797 23L1.62025 23C0.725412 23 0 23.7036 0 24.5714L0 32.4286Z" fill="#2C1810"/>
<path fill-rule="evenodd" clip-rule="evenodd" d="M4.5 31C4.22386 31 4 30.8135 4 30.5833V26.4167C4 26.1865 4.22386 26 4.5 26C4.77614 26 5 26.1865 5 26.4167V30.5833C5 30.8135 4.77614 31 4.5 31Z" fill="#2C1810"/>
<path fill-rule="evenodd" clip-rule="evenodd" d="M57.5 31C57.2239 31 57 30.8135 57 30.5833V26.4167C57 26.1865 57.2239 26 57.5 26C57.7761 26 58 26.1865 58 26.4167V30.5833C58 30.8135 57.7761 31 57.5 31Z" fill="#2C1810"/>
<path fill-rule="evenodd" clip-rule="evenodd" d="M59.5 31C59.2239 31 59 30.8135 59 30.5833V26.4167C59 26.1865 59.2239 26 59.5 26C59.7761 26 60 26.1865 60 26.4167V30.5833C60 30.8135 59.7761 31 59.5 31Z" fill="#2C1810"/>
<path d="M34.9271 16.2277C35.7842 16.4651 36.4586 16.898 36.9504 17.5265C37.4422 18.1411 37.6881 18.9232 37.6881 19.8729C37.6881 21.1439 37.2033 22.1215 36.2338 22.8059C35.2783 23.4902 33.8802 23.8324 32.0396 23.8324H25V9.1676H31.618C33.3042 9.1676 34.6039 9.50279 35.5172 10.1732C36.4446 10.8436 36.9082 11.7723 36.9082 12.9595C36.9082 13.7277 36.7256 14.3911 36.3603 14.9497C36.009 15.5084 35.5312 15.9344 34.9271 16.2277ZM27.1077 10.8645V15.5573H31.4283C32.5103 15.5573 33.3393 15.3617 33.9154 14.9707C34.5055 14.5656 34.8006 13.9791 34.8006 13.2109C34.8006 12.4427 34.5055 11.8631 33.9154 11.4721C33.3393 11.067 32.5103 10.8645 31.4283 10.8645H27.1077ZM31.9553 22.1355C33.1496 22.1355 34.0489 21.9399 34.6531 21.5489C35.2572 21.1578 35.5593 20.5433 35.5593 19.7053C35.5593 18.0712 34.358 17.2542 31.9553 17.2542H27.1077V22.1355H31.9553Z" fill="#2C1810"/>
<path d="M47.4431 23.8324L44.2605 19.3282C43.8671 19.3561 43.5579 19.3701 43.3331 19.3701H39.6869V23.8324H37.5792V9.1676H43.3331C45.2441 9.1676 46.7475 9.62151 47.8435 10.5293C48.9395 11.4372 49.4875 12.6872 49.4875 14.2793C49.4875 15.4106 49.2065 16.3743 48.6444 17.1704C48.0824 17.9665 47.2815 18.5461 46.2417 18.9092L49.7404 23.8324H47.4431ZM43.2699 17.5894C44.6048 17.5894 45.6235 17.3031 46.326 16.7304C47.0286 16.1578 47.3798 15.3408 47.3798 14.2793C47.3798 13.2179 47.0286 12.4078 46.326 11.8492C45.6235 11.2765 44.6048 10.9902 43.2699 10.9902H39.6869V17.5894H43.2699Z" fill="#2C1810"/>
<path d="M56.1806 24C54.6912 24 53.3493 23.6788 52.155 23.0363C50.9606 22.3799 50.0192 21.4791 49.3307 20.3338C48.6563 19.1885 48.319 17.9106 48.319 16.5C48.319 15.0894 48.6563 13.8115 49.3307 12.6662C50.0192 11.5209 50.9606 10.6271 52.155 9.98464C53.3493 9.32821 54.6912 9 56.1806 9C57.656 9 58.9908 9.32821 60.1851 9.98464C61.3795 10.6271 62.3139 11.5209 62.9883 12.6662C63.6628 13.7975 64 15.0754 64 16.5C64 17.9246 63.6628 19.2095 62.9883 20.3547C62.3139 21.486 61.3795 22.3799 60.1851 23.0363C58.9908 23.6788 57.656 24 56.1806 24ZM56.1806 22.1355C57.2625 22.1355 58.232 21.8911 59.0892 21.4022C59.9603 20.9134 60.6418 20.243 61.1336 19.3911C61.6394 18.5251 61.8923 17.5615 61.8923 16.5C61.8923 15.4385 61.6394 14.4818 61.1336 13.6299C60.6418 12.764 59.9603 12.0866 59.0892 11.5978C58.232 11.1089 57.2625 10.8645 56.1806 10.8645C55.0987 10.8645 54.1151 11.1089 53.2299 11.5978C52.3587 12.0866 51.6702 12.764 51.1644 13.6299C50.6726 14.4818 50.4267 15.4385 50.4267 16.5C50.4267 17.5615 50.6726 18.5251 51.1644 19.3911C51.6702 20.243 52.3587 20.9134 53.2299 21.4022C54.1151 21.8911 55.0987 22.1355 56.1806 22.1355Z" fill="#2C1810"/>
<path d="M2.90777 22.4667L0 22.7333V23H17.3757L18.2622 15.7333L17.8367 15.6667L15.4254 21.3667C15.2126 21.8556 14.9762 22.1889 14.7162 22.3667C14.4561 22.5222 14.0424 22.6 13.475 22.6H5.63824V0.533334L8.72331 0.266667V0H0V0.266667L2.90777 0.533334V22.4667Z" fill="#2C1810"/>
<path d="M19.7873 3.73334C19.7873 3.26667 19.941 2.88889 20.2483 2.6C20.5792 2.28889 20.993 2.13333 21.4894 2.13333C21.9858 2.13333 22.3877 2.28889 22.6951 2.6C23.026 2.88889 23.1915 3.26667 23.1915 3.73334C23.1915 4.2 23.026 4.58889 22.6951 4.9C22.3877 5.18889 21.9858 5.33333 21.4894 5.33333C20.993 5.33333 20.5792 5.18889 20.2483 4.9C19.941 4.58889 19.7873 4.2 19.7873 3.73334ZM22.8369 8.53333H22.5532L18.4398 9.83333V10.0667L20.532 10.8V22.4667L18.3689 22.7333V23H25V22.7333L22.8369 22.4667V8.53333Z" fill="#2C1810"/>
</svg>
