<svg width="214" height="182" viewBox="0 0 214 182" fill="none" xmlns="http://www.w3.org/2000/svg">
<path opacity="0.1" d="M125.503 31.4983C111.963 30.9825 99.064 26.194 86.7493 20.9539C74.4345 15.7138 62.237 9.90757 49.0205 7.13166C40.5198 5.34599 30.7973 5.09385 23.9495 10.0864C17.357 14.9001 15.2271 23.1866 14.0827 30.8839C13.2207 36.6742 12.7144 42.767 15.0765 48.1881C16.7147 51.952 19.6249 55.1153 21.6355 58.7325C28.6382 71.2757 23.6901 86.7438 16.1016 98.9912C12.5449 104.738 8.41277 110.223 5.66779 116.334C2.92281 122.446 1.65075 129.458 4.05261 135.697C6.43563 141.886 12.1118 146.526 18.2587 149.792C30.7471 156.428 45.4574 158.326 59.8121 159.401C91.5781 161.783 123.512 160.751 155.361 159.72C167.149 159.337 178.986 158.95 190.581 156.953C197.021 155.844 203.668 154.085 208.344 149.836C214.278 144.442 215.749 135.307 211.773 128.545C205.101 117.201 186.667 114.384 181.997 102.207C179.432 95.507 182.068 88.0435 185.797 81.8269C193.797 68.4952 207.206 56.7978 207.913 41.5589C208.399 31.0902 201.951 20.6101 191.983 15.6565C181.537 10.4462 167.046 11.1064 159.343 19.7001C151.405 28.555 137.458 31.9521 125.503 31.4983Z" fill="#B47923"/>
<path d="M91.1053 158.278L19.4931 157.895L12.3775 139.61L37.5384 137.609L33.1531 117.561L82.9184 110.494L35.2642 92.3437L39.4737 91.248L116.101 104.944L111.881 136.231L105.849 153.425L91.1053 158.278Z" fill="#6C63FF"/>
<path d="M20.5915 150.237C20.5915 150.237 24.9851 149.467 27.6213 152.868C27.6213 152.868 25.6881 154.537 21.5288 152.227L20.5915 150.237Z" fill="#6C63FF"/>
<path d="M20.1312 150.161C20.1312 150.161 17.3277 153.941 18.7085 158.15C18.7085 158.15 20.9932 157.148 21.2422 152.045L20.1312 150.161Z" fill="#6C63FF"/>
<path d="M17.6122 143.947C17.6122 143.947 19.3696 140.414 26.3995 145.359C26.3995 145.359 25.4622 147.734 22.3573 147.541C19.2525 147.349 18.4323 145.808 17.6122 143.947Z" fill="#6C63FF"/>
<path d="M17.1582 143.693C17.1582 143.693 13.5115 143.234 13.1579 152.38C13.1579 152.38 15.4698 152.905 17.1122 150.012C18.7546 147.119 18.0809 145.497 17.1582 143.693Z" fill="#6C63FF"/>
<path d="M15.0347 136.396C15.0347 136.396 17.085 130.171 24.5249 134.599C24.5249 134.599 22.8261 140.311 15.7962 138.514L15.0347 136.396Z" fill="#DAAA63"/>
<path d="M12.7499 127.09C12.7499 127.09 16.6163 120.8 23.4704 126.631C23.4704 126.631 21.0686 132.536 13.3358 129.327L12.7499 127.09Z" fill="#DAAA63"/>
<path d="M11.9298 118.232C11.9298 118.232 16.4406 112.454 23.2277 118.232C23.2277 118.232 18.9513 123.303 11.9298 119.709V118.232Z" fill="#DAAA63"/>
<path d="M11.2267 109.63C11.2267 109.63 15.7961 103.596 22.2987 109.309C22.2987 109.309 17.1435 114.636 11.2267 111.042V109.63Z" fill="#DAAA63"/>
<path d="M11.6369 101.992C11.6369 101.992 16.449 94.2259 22.5331 99.4889C22.5331 99.4889 17.3779 106.164 11.6369 103.468V101.992Z" fill="#DAAA63"/>
<path d="M12.7499 93.0705C12.7499 93.0705 17.8466 85.3685 23.7633 91.2734C23.7633 91.2734 17.7294 97.9484 12.7499 94.4825V93.0705Z" fill="#DAAA63"/>
<path d="M14.4488 85.0957C14.4488 85.0957 20.4827 77.8568 25.7467 80.7404C25.7467 80.7404 19.4596 88.4286 14.1852 87.0166L14.4488 85.0957Z" fill="#DAAA63"/>
<path d="M16.5577 77.5359C16.5577 77.5359 23.5206 68.6695 27.5711 71.6311C27.5711 71.6311 22.441 78.5078 16.064 79.1955L16.5577 77.5359Z" fill="#DAAA63"/>
<path d="M19.6019 68.7681C19.6019 68.7681 25.6965 61.5291 30.1488 63.3263C30.1488 63.3263 24.935 70.8357 18.7839 71.0282L19.6019 68.7681Z" fill="#DAAA63"/>
<path d="M22.3574 60.5664C22.3574 60.5664 29.0943 53.6346 32.0234 54.8541C32.0234 54.8541 27.1611 62.5561 22.0645 62.1068L22.3574 60.5664Z" fill="#DAAA63"/>
<path d="M25.0521 52.9929C25.0521 52.9929 30.8517 44.711 34.0172 45.3528C34.0172 45.3528 30.5002 52.7362 25.0521 53.8342V52.9929Z" fill="#DAAA63"/>
<path d="M27.977 42.7808C27.977 42.7808 33.1029 36.4335 35.873 36.4473C35.873 36.4473 31.8267 44.9286 27.7657 44.8507L27.977 42.7808Z" fill="#DAAA63"/>
<path d="M29.7093 35.9819L34.6616 22.7603C34.6616 22.7603 34.9085 34.712 29.0796 38.4347L29.7093 35.9819Z" fill="#DAAA63"/>
<path d="M31.72 21.401C31.72 21.401 32.5401 10.3593 32.0129 9.46069C32.0129 9.46069 35.5529 18.6412 31.6865 26.2789L31.72 21.401Z" fill="#DAAA63"/>
<path d="M14.8422 136.25C14.8422 136.25 9.70788 132.763 6.38336 141.293C6.38336 141.293 10.9527 144.616 15.4468 138.425L14.8422 136.25Z" fill="#DAAA63"/>
<path d="M12.5847 126.735C12.5847 126.735 6.28711 123.587 3.23248 132.493C3.23248 132.493 8.09687 136.16 13.1579 128.986L12.5847 126.735Z" fill="#DAAA63"/>
<path d="M11.6369 118.762C11.6369 118.762 7.12612 112.983 0.338989 118.762C0.338989 118.762 4.61547 123.832 11.6369 120.238V118.762Z" fill="#DAAA63"/>
<path d="M11.072 109.63C11.072 109.63 6.50259 103.596 0 109.309C0 109.309 5.1552 114.636 11.072 111.042V109.63Z" fill="#DAAA63"/>
<path d="M11.6369 102.212C11.6369 102.212 8.4316 93.5129 1.46454 97.2538C1.46454 97.2538 5.23051 104.967 11.3523 103.656L11.6369 102.212Z" fill="#DAAA63"/>
<path d="M13.1537 93.0269C13.1537 93.0269 9.96731 84.1765 2.90192 88.2796C2.90192 88.2796 7.22861 96.3919 12.8399 94.3931L13.1537 93.0269Z" fill="#DAAA63"/>
<path d="M15.1288 85.1392C15.1288 85.1392 13.8734 75.4361 8.01526 74.5674C8.01526 74.5674 9.25803 84.8 14.34 86.8882L15.1288 85.1392Z" fill="#DAAA63"/>
<path d="M16.7063 77.5543C16.7063 77.5543 16.2168 65.8638 11.3733 65.4558C11.3733 65.4558 11.5365 74.3291 16.1603 79.2093L16.7063 77.5543Z" fill="#DAAA63"/>
<path d="M20.1041 68.4403C20.1041 68.4403 18.6605 58.7189 14.0367 57.5315C14.0367 57.5315 14.6099 66.9458 19.6459 70.8265L20.1041 68.4403Z" fill="#DAAA63"/>
<path d="M22.9055 60.6466C22.9055 60.6466 22.8574 50.5194 20.0329 49.0317C20.0329 49.0317 18.2818 58.2007 22.0875 61.9394L22.9055 60.6466Z" fill="#DAAA63"/>
<path d="M25.2676 52.8782C25.2676 52.8782 24.8722 42.4508 21.9473 40.9814C21.9473 40.9814 20.9472 49.2335 24.8303 53.5613L25.2676 52.8782Z" fill="#DAAA63"/>
<path d="M28.385 43.6128C28.385 43.6128 28.3683 35.1315 26.2802 33.1418C26.2802 33.1418 24.2048 42.4323 27.2949 45.3183L28.385 43.6128Z" fill="#DAAA63"/>
<path d="M29.4646 35.5649L27.4331 21.4492C27.4331 21.4492 24.6735 33.0159 29.5609 38.1139L29.4646 35.5649Z" fill="#DAAA63"/>
<path d="M29.86 21.5338C29.86 21.5338 24.6462 12.0439 24.7529 10.9895C24.7529 10.9895 25.3073 20.9356 31.8664 25.8891L29.86 21.5338Z" fill="#DAAA63"/>
<path d="M30.471 18.7304C30.471 18.7304 25.5501 5.252 23.324 4.16089C23.324 4.16089 30.3538 8.07605 30.881 18.3453L30.471 18.7304Z" fill="#DAAA63"/>
<path d="M27.7406 44.9309L27.4037 44.8186C31.5568 29.9809 32.5924 20.5208 30.3224 18.1483L30.563 17.8687C32.9711 20.3718 31.9941 29.7288 27.7406 44.9309Z" fill="#444053"/>
<path d="M16.3046 79.6722L15.8066 79.4774C16.2481 78.1181 16.723 76.7382 17.221 75.3789C21.556 63.5417 25.2467 52.5297 27.613 44.0759L28.0461 43.8467C25.6756 52.3165 22.0498 63.7503 17.7105 75.6035C17.2147 76.9376 16.7419 78.3106 16.3046 79.6722Z" fill="#444053"/>
<path d="M26.7824 161.341C26.7154 161.26 19.9848 152.955 15.292 138.778C12.5422 130.478 11.0119 121.752 10.7581 112.926C10.4359 101.893 12.5491 89.5748 16.1686 78.384L16.5619 78.8883C8.43578 104.004 11.6641 125.526 15.9468 138.487C20.5894 152.536 27.2447 160.749 27.3096 160.832L26.7824 161.341Z" fill="#444053"/>
<path d="M131.962 143.708C131.962 143.708 127.219 150.051 130.985 159.64L93.1159 177.634L89.4817 178.468L87.8079 170.445L88.9273 160.32V154.787L131.962 143.708Z" fill="#D5D6DB"/>
<path d="M12.3775 139.61L64.7915 129.141L134.242 141.263L91.1053 158.278L12.3775 139.61Z" fill="#6C63FF"/>
<path d="M12.3775 139.61L64.7915 129.141L134.242 141.263L91.1053 158.278L12.3775 139.61Z" fill="#6C63FF"/>
<path d="M12.3775 139.608C12.3775 139.608 7.47548 149.783 13.1244 159.181L90.85 177.634C90.85 177.634 86.0254 169.528 91.099 158.278L12.3775 139.608Z" fill="#6C63FF"/>
<path opacity="0.1" d="M12.3775 139.608C12.3775 139.608 7.47548 149.783 13.1244 159.181L90.85 177.634C90.85 177.634 86.0254 169.528 91.099 158.278L12.3775 139.608Z" fill="black"/>
<path opacity="0.1" d="M14.6936 143.135C14.6936 143.135 11.8921 150.581 14.6936 155.399V143.135Z" fill="black"/>
<path d="M90.85 177.634L134.242 157.347C134.242 157.347 136.669 157.92 135.1 159.869C133.531 161.817 91.6869 179.582 91.6869 179.582L13.1244 159.181L90.85 177.634Z" fill="#6C63FF"/>
<path opacity="0.1" d="M90.85 177.634L134.242 157.347C134.242 157.347 136.669 157.92 135.1 159.869C133.531 161.817 91.6869 179.582 91.6869 179.582L13.1244 159.181L90.85 177.634Z" fill="black"/>
<path opacity="0.1" d="M87.2933 160.327C87.2933 160.327 83.1089 165.829 87.2933 174.081V160.327Z" fill="black"/>
<path opacity="0.1" d="M107.552 160.234L88.7825 167.095L88.8487 167.312L107.618 160.452L107.552 160.234Z" fill="black"/>
<path opacity="0.1" d="M111.311 159.552L88.7766 168.94L88.851 169.154L111.385 159.766L111.311 159.552Z" fill="black"/>
<path opacity="0.1" d="M114.763 159.519L88.9023 171.116L88.9816 171.328L114.843 159.731L114.763 159.519Z" fill="black"/>
<path opacity="0.1" d="M118.518 158.526L89.2042 173.033L89.2903 173.242L118.604 158.735L118.518 158.526Z" fill="black"/>
<path opacity="0.1" d="M121.672 158.53L89.4362 173.968L89.52 174.178L121.756 158.74L121.672 158.53Z" fill="black"/>
<path opacity="0.1" d="M128.571 157.247L89.9224 175.535L90.0053 175.746L128.654 157.457L128.571 157.247Z" fill="black"/>
<path opacity="0.3" d="M31.8497 140.729L68.6726 132.247L91.1053 136.946L60.9314 147.605L31.8497 140.729Z" fill="white"/>
<path d="M134.242 141.263C134.242 141.263 136.146 142.104 135.029 143.404C133.912 144.703 91.099 158.278 91.099 158.278L134.242 141.263Z" fill="#6C63FF"/>
<path d="M152.736 121.662C152.736 121.662 147.995 128.002 151.761 137.593L113.892 155.587L110.257 156.426L108.584 148.403L109.72 138.28V132.74L152.736 121.662Z" fill="#D5D6DB"/>
<path d="M33.1531 117.561L85.5651 107.094L155.018 119.216L111.881 136.231L33.1531 117.561Z" fill="#3A3768"/>
<path d="M33.1448 117.561C33.1448 117.561 28.2406 127.736 33.8896 137.134L111.615 155.587C111.615 155.587 106.793 147.475 111.873 136.229L33.1448 117.561Z" fill="#3A3768"/>
<path opacity="0.1" d="M33.1448 117.561C33.1448 117.561 28.2406 127.736 33.8896 137.134L111.615 155.587C111.615 155.587 106.793 147.475 111.873 136.229L87.2933 130.4L33.1448 117.561Z" fill="black"/>
<path opacity="0.1" d="M35.4671 121.089C35.4671 121.089 32.6678 128.532 35.4671 133.352V121.089Z" fill="black"/>
<path d="M111.624 155.587L155.018 135.301C155.018 135.301 157.443 135.874 155.874 137.822C154.305 139.77 112.46 157.535 112.46 157.535L33.898 137.134L111.624 155.587Z" fill="#3A3768"/>
<path opacity="0.1" d="M111.624 155.587L155.018 135.301C155.018 135.301 157.443 135.874 155.874 137.822C154.305 139.77 112.46 157.535 112.46 157.535L33.898 137.134L111.624 155.587Z" fill="black"/>
<path opacity="0.1" d="M108.067 138.281C108.067 138.281 103.882 143.782 108.067 152.034V138.281Z" fill="black"/>
<path opacity="0.1" d="M128.327 138.19L109.558 145.05L109.624 145.268L128.393 138.407L128.327 138.19Z" fill="black"/>
<path opacity="0.1" d="M132.089 137.506L109.554 146.894L109.629 147.109L132.163 137.72L132.089 137.506Z" fill="black"/>
<path opacity="0.1" d="M135.538 137.47L109.677 149.067L109.756 149.28L135.617 137.682L135.538 137.47Z" fill="black"/>
<path opacity="0.1" d="M139.295 136.477L109.981 150.985L110.068 151.194L139.381 136.686L139.295 136.477Z" fill="black"/>
<path opacity="0.1" d="M142.446 136.479L110.21 151.917L110.294 152.127L142.53 136.689L142.446 136.479Z" fill="black"/>
<path opacity="0.1" d="M149.347 135.196L110.698 153.484L110.781 153.695L149.43 135.406L149.347 135.196Z" fill="black"/>
<path opacity="0.45" d="M52.6254 118.682L89.4483 110.2L111.881 114.9L81.7071 125.559L52.6254 118.682Z" fill="white"/>
<path d="M155.018 119.216C155.018 119.216 156.92 120.057 155.805 121.354C154.69 122.652 111.881 136.229 111.881 136.229L155.018 119.216Z" fill="#3A3768"/>
<path d="M154.702 96.4399C154.702 96.4399 149.959 107.826 153.725 117.414L115.856 130.365L112.23 131.206L110.557 123.184L111.676 113.059V107.518L154.702 96.4399Z" fill="#D5D6DB"/>
<path d="M35.1262 92.3415L87.5402 81.8728L156.993 93.9942L113.854 111.01L35.1262 92.3415Z" fill="#6C63FF"/>
<path d="M35.1261 92.3391C35.1261 92.3391 30.2157 102.514 35.8646 111.913L113.59 130.365C113.59 130.365 108.766 122.253 113.845 111.009L35.1261 92.3391Z" fill="#6C63FF"/>
<path d="M35.1261 92.3391C35.1261 92.3391 30.2157 102.514 35.8646 111.913L113.59 130.365C113.59 130.365 108.766 122.253 113.845 111.009L35.1261 92.3391Z" fill="#A6A5E3"/>
<path opacity="0.1" d="M37.4422 95.8669C37.4422 95.8669 34.6407 103.312 37.4422 108.13V95.8669Z" fill="black"/>
<path d="M113.599 130.365L156.991 115.122C156.991 115.122 159.418 115.695 157.849 117.643C156.28 119.592 114.436 132.314 114.436 132.314L35.873 111.913L113.599 130.365Z" fill="#6C63FF"/>
<path opacity="0.1" d="M113.599 130.365L156.991 115.122C156.991 115.122 159.418 115.695 157.849 117.643C156.28 119.592 114.436 132.314 114.436 132.314L35.873 111.913L113.599 130.365Z" fill="black"/>
<path opacity="0.1" d="M110.042 113.059C110.042 113.059 105.857 118.56 110.042 126.812V113.059Z" fill="black"/>
<path opacity="0.1" d="M130.302 112.968L111.533 119.828L111.6 120.046L130.369 113.185L130.302 112.968Z" fill="black"/>
<path opacity="0.1" d="M134.063 112.285L111.529 121.674L111.603 121.888L134.137 112.5L134.063 112.285Z" fill="black"/>
<path opacity="0.1" d="M137.51 112.25L111.649 123.848L111.729 124.06L137.59 112.462L137.51 112.25Z" fill="black"/>
<path opacity="0.1" d="M141.27 111.256L111.957 125.763L112.043 125.972L141.356 111.465L141.27 111.256Z" fill="black"/>
<path opacity="0.1" d="M144.422 111.259L112.187 126.697L112.27 126.907L144.506 111.47L144.422 111.259Z" fill="black"/>
<path opacity="0.1" d="M151.322 109.977L112.674 128.266L112.757 128.477L151.405 110.188L151.322 109.977Z" fill="black"/>
<path opacity="0.3" d="M54.5983 93.4601L91.4212 84.9788L113.854 89.6779L83.68 100.337L54.5983 93.4601Z" fill="white"/>
<path d="M156.991 93.9941C156.991 93.9941 158.895 94.8354 157.778 96.1351C156.66 97.4348 113.854 111.01 113.854 111.01L156.991 93.9941Z" fill="#6C63FF"/>
<path d="M64.9464 24.4107C64.9464 24.4107 56.996 23.8858 57.9249 29.9969C57.9249 29.9969 57.7387 31.0766 58.6321 31.5671C58.6321 31.5671 58.6467 31.1086 59.4481 31.2668C59.734 31.3206 60.0249 31.336 60.3142 31.3127C60.7043 31.2834 61.0751 31.1161 61.3708 30.8359C61.3708 30.8359 63.6074 29.8227 64.4777 25.8158C64.4777 25.8158 65.1221 24.9425 65.1054 24.7179L63.758 25.3459C63.758 25.3459 64.2162 26.4072 63.8563 27.2898C63.8563 27.2898 63.8124 25.3849 63.553 25.4285C63.5007 25.4285 62.8563 25.7975 62.8563 25.7975C62.8563 25.7975 63.645 27.6474 63.0487 28.9906C63.0487 28.9906 63.2747 26.7121 62.6094 25.9305L61.6637 26.5356C61.6637 26.5356 62.5864 28.4451 61.9608 30.0038C61.9608 30.0038 62.1219 27.613 61.4649 26.6823L60.6071 27.4158C60.6071 27.4158 61.4754 29.2978 60.9461 30.5906C60.9461 30.5906 60.877 27.8078 60.423 27.5969C60.423 27.5969 59.6719 28.3213 59.5589 28.6193C59.5589 28.6193 60.1531 29.9946 59.7828 30.7075C59.7828 30.7075 59.5589 28.8531 59.3644 28.8439C59.3644 28.8439 58.6174 30.0726 58.54 30.9069C58.5762 30.1291 58.7977 29.3751 59.1823 28.7201C58.7519 28.8094 58.3547 29.0349 58.04 29.3688C58.04 29.3688 58.1551 28.5001 59.3685 28.4244C59.3685 28.4244 59.9857 27.4915 60.151 27.4365C60.151 27.4365 58.9438 27.3241 58.2136 27.6794C58.2136 27.6794 58.858 26.8611 60.3707 27.221L61.2076 26.4646C61.2076 26.4646 59.6217 26.2353 58.948 26.4898C58.948 26.4898 59.7242 25.7654 61.4357 26.2926L62.3583 25.6898C62.3583 25.6898 61.0047 25.3711 60.1992 25.4858C60.1992 25.4858 61.0486 24.9838 62.6282 25.527L63.2852 25.2038C63.2852 25.2038 62.2955 24.9906 62.0047 24.9563C61.7139 24.9219 61.6993 24.8348 61.6993 24.8348C62.3274 24.7217 62.9718 24.8011 63.5613 25.064C63.5613 25.064 64.9736 24.507 64.9464 24.4107Z" fill="#DAAA63"/>
<path opacity="0.1" d="M176.796 49.5291C176.796 49.5291 168.845 49.0042 169.774 55.1153C169.774 55.1153 169.588 56.195 170.482 56.6855C170.482 56.6855 170.496 56.2271 171.298 56.3852C171.584 56.4378 171.874 56.4532 172.164 56.4311C172.55 56.3999 172.917 56.2326 173.21 55.9543C173.21 55.9543 175.449 54.9411 176.317 50.9343C176.317 50.9343 176.961 50.0609 176.944 49.8363L175.601 50.4643C175.601 50.4643 176.059 51.5257 175.7 52.4082C175.7 52.4082 175.656 50.5033 175.398 50.5469C175.346 50.5469 174.7 50.9159 174.7 50.9159C174.7 50.9159 175.488 52.7658 174.894 54.109C174.894 54.109 175.12 51.8305 174.453 51.0489L173.507 51.654C173.507 51.654 174.43 53.5635 173.804 55.1222C173.804 55.1222 173.965 52.7314 173.308 51.8007L172.452 52.5342C172.452 52.5342 173.319 54.4162 172.789 55.709C172.789 55.709 172.72 52.9262 172.266 52.7153C172.266 52.7153 171.517 53.4397 171.402 53.7377C171.402 53.7377 171.996 55.113 171.628 55.8259C171.628 55.8259 171.402 53.9715 171.21 53.9623C171.21 53.9623 170.463 55.191 170.385 56.0253C170.422 55.2471 170.644 54.493 171.03 53.8385C170.599 53.928 170.201 54.1535 169.885 54.4872C169.885 54.4872 170.002 53.6185 171.214 53.5428C171.214 53.5428 171.831 52.6099 171.996 52.5526C171.996 52.5526 170.791 52.4426 170.059 52.7979C170.059 52.7979 170.703 51.9795 172.216 52.3394L173.053 51.583C173.053 51.583 171.465 51.3537 170.793 51.6082C170.793 51.6082 171.567 50.8838 173.281 51.411L174.202 50.8082C174.202 50.8082 172.848 50.4896 172.042 50.6042C172.042 50.6042 172.892 50.1022 174.471 50.6454L175.131 50.3222C175.131 50.3222 174.139 50.109 173.848 50.0747C173.557 50.0403 173.543 49.9532 173.543 49.9532C174.171 49.8387 174.815 49.9181 175.405 50.1824C175.405 50.1824 176.821 49.6254 176.796 49.5291Z" fill="#DAAA63"/>
<path opacity="0.1" d="M78.3365 62.1641C78.3365 62.1641 74.8718 54.2948 70.4614 58.1733C70.4614 58.1733 69.5095 58.5217 69.5555 59.6151C69.5555 59.6151 69.9216 59.4065 70.1832 60.2501C70.2809 60.5483 70.4101 60.8329 70.5681 61.0982C70.7822 61.4578 71.0972 61.7314 71.4657 61.8776C71.4657 61.8776 73.3633 63.5234 76.9808 62.4002C76.9808 62.4002 77.9913 62.5905 78.1566 62.4575L77.0017 61.4787C77.0017 61.4787 76.374 62.4346 75.4995 62.5194C75.4995 62.5194 76.9975 61.5498 76.8364 61.3251C76.8029 61.2793 76.2087 60.8369 76.2087 60.8369C76.2087 60.8369 75.1187 62.4942 73.7588 62.579C73.7588 62.579 75.6836 61.685 75.9807 60.665L75.0392 60.0552C75.0392 60.0552 73.9659 61.8707 72.4197 62.0312C72.4197 62.0312 74.4032 61.0203 74.8237 59.9383L73.8236 59.4799C73.8236 59.4799 72.7461 61.2266 71.4573 61.3526C71.4573 61.3526 73.6416 59.9292 73.5872 59.3905C73.5872 59.3905 72.6436 59.0283 72.3507 59.0627C72.3507 59.0627 71.5515 60.2982 70.7983 60.2982C70.7983 60.2982 72.1645 59.1773 72.0808 58.9962C72.0808 58.9962 70.7376 58.8816 70.0304 59.2254C70.6677 58.8784 71.3768 58.7204 72.0871 58.767C71.8053 58.3988 71.4315 58.1288 71.0117 57.9899C71.0117 57.9899 71.7607 57.6782 72.4114 58.7991C72.4114 58.7991 73.4575 58.9343 73.5809 59.065C73.5809 59.065 73.0809 57.8593 72.4428 57.3343C72.4428 57.3343 73.4094 57.5475 73.8508 59.1681L74.8655 59.6082C74.8655 59.6082 74.2818 57.9762 73.7441 57.4604C73.7441 57.4604 74.6982 57.8478 75.1145 59.7527L76.0435 60.3395C76.0435 60.3395 75.6397 58.8885 75.1543 58.1756C75.1543 58.1756 75.9681 58.7441 76.305 60.5183L76.8845 60.9905C76.8845 60.9905 76.5707 59.9383 76.4661 59.6449C76.3615 59.3515 76.4138 59.2919 76.4138 59.2919C76.8118 59.8361 77.0639 60.4909 77.1419 61.183C77.1419 61.183 78.2612 62.2329 78.3365 62.1641Z" fill="#DAAA63"/>
<path opacity="0.1" d="M158.631 38.4117C158.631 38.4117 155.169 30.5424 150.756 34.4209C150.756 34.4209 149.806 34.7693 149.85 35.8627C149.85 35.8627 150.219 35.6564 150.478 36.4976C150.576 36.797 150.705 37.0826 150.865 37.3481C151.078 37.707 151.393 37.9798 151.761 38.1251C151.761 38.1251 153.66 39.771 157.276 38.6501C157.276 38.6501 158.286 38.838 158.453 38.7051L157.305 37.724C157.305 37.724 156.677 38.6821 155.805 38.767C155.805 38.767 157.301 37.795 157.14 37.5704C157.106 37.5246 156.512 37.0822 156.512 37.0822C156.512 37.0822 155.424 38.7395 154.062 38.8243C154.062 38.8243 155.989 37.9303 156.286 36.9125L155.33 36.3074C155.33 36.3074 154.259 38.1205 152.71 38.2833C152.71 38.2833 154.694 37.2701 155.116 36.1882L154.114 35.7297C154.114 35.7297 153.037 37.4787 151.75 37.6025C151.75 37.6025 153.932 36.179 153.878 35.6426C153.878 35.6426 152.936 35.2782 152.643 35.3148C152.643 35.3148 151.844 36.5481 151.089 36.5481C151.089 36.5481 152.457 35.4272 152.374 35.2461C152.374 35.2461 151.03 35.1315 150.321 35.4753C150.958 35.1282 151.667 34.9701 152.378 35.0168C152.097 34.6484 151.724 34.3783 151.304 34.2398C151.304 34.2398 152.053 33.928 152.704 35.0489C152.704 35.0489 153.75 35.1865 153.874 35.3171C153.874 35.3171 153.374 34.1091 152.733 33.5842C152.733 33.5842 153.7 33.7997 154.141 35.4294L155.158 35.8696C155.158 35.8696 154.575 34.2352 154.037 33.7194C154.037 33.7194 154.991 34.1068 155.405 36.0117L156.336 36.5985C156.336 36.5985 155.93 35.1498 155.445 34.4346C155.445 34.4346 156.261 35.0031 156.596 36.7773L157.175 37.2495C157.175 37.2495 156.863 36.1973 156.757 35.9039C156.65 35.6105 156.704 35.5532 156.704 35.5532C157.101 36.098 157.353 36.7526 157.43 37.4443C157.43 37.4443 158.566 38.485 158.631 38.4117Z" fill="#DAAA63"/>
<path opacity="0.1" d="M169.697 77.3363C169.697 77.3363 166.234 69.4647 161.816 73.3432C161.816 73.3432 160.866 73.6916 160.91 74.785C160.91 74.785 161.278 74.5787 161.537 75.42C161.634 75.7193 161.763 76.0048 161.922 76.2704C162.136 76.6294 162.45 76.9022 162.818 77.0475C162.818 77.0475 164.718 78.6956 168.335 77.5724C168.335 77.5724 169.343 77.7627 169.511 77.6274L168.356 76.6486C168.356 76.6486 167.728 77.6068 166.854 77.6916C166.854 77.6916 168.35 76.7197 168.189 76.4951C168.155 76.4492 167.561 76.0068 167.561 76.0068C167.561 76.0068 166.473 77.6641 165.111 77.7512C165.111 77.7512 167.038 76.8549 167.335 75.8372L166.391 75.2275C166.391 75.2275 165.32 77.0429 163.772 77.2034C163.772 77.2034 165.755 76.1902 166.178 75.1083L165.176 74.6498C165.176 74.6498 164.098 76.3965 162.812 76.5226C162.812 76.5226 164.996 75.0991 164.941 74.5604C164.941 74.5604 163.998 74.1959 163.705 74.2326C163.705 74.2326 162.906 75.4658 162.15 75.4658C162.15 75.4658 163.519 74.3449 163.435 74.1639C163.435 74.1639 162.092 74.0492 161.383 74.3931C162.021 74.0462 162.73 73.8881 163.441 73.9346C163.16 73.5657 162.786 73.2954 162.366 73.1575C162.366 73.1575 163.115 72.8435 163.766 73.9667C163.766 73.9667 164.812 74.102 164.935 74.2326C164.935 74.2326 164.435 73.0269 163.797 72.4997C163.797 72.4997 164.764 72.7152 165.205 74.3449L166.22 74.785C166.22 74.785 165.636 73.1507 165.098 72.6372C165.098 72.6372 166.052 73.0223 166.467 74.9295L167.398 75.514C167.398 75.514 166.992 74.0653 166.506 73.3501C166.506 73.3501 167.322 73.9186 167.659 75.6951L168.239 76.1535C168.239 76.1535 167.925 75.1014 167.82 74.808C167.716 74.5146 167.768 74.4573 167.768 74.4573C168.166 75.0014 168.417 75.6563 168.494 76.3484C168.494 76.3484 169.632 77.4051 169.697 77.3363Z" fill="#DAAA63"/>
<path opacity="0.1" d="M10.7205 169.735C13.377 169.735 15.5305 169.471 15.5305 169.146C15.5305 168.82 13.377 168.557 10.7205 168.557C8.06403 168.557 5.91052 168.82 5.91052 169.146C5.91052 169.471 8.06403 169.735 10.7205 169.735Z" fill="#956D31"/>
<path opacity="0.1" d="M189.456 171.912C192.112 171.912 194.266 171.649 194.266 171.323C194.266 170.998 192.112 170.734 189.456 170.734C186.799 170.734 184.646 170.998 184.646 171.323C184.646 171.649 186.799 171.912 189.456 171.912Z" fill="#956D31"/>
<path opacity="0.1" d="M149.43 169.054C152.086 169.054 154.24 168.79 154.24 168.465C154.24 168.139 152.086 167.876 149.43 167.876C146.773 167.876 144.62 168.139 144.62 168.465C144.62 168.79 146.773 169.054 149.43 169.054Z" fill="#956D31"/>
<path d="M126.074 171.165C126.074 171.165 118.153 175.649 122.246 180.93C122.246 180.93 122.631 182.076 123.744 181.996C123.744 181.996 123.522 181.551 124.371 181.196C124.674 181.068 124.961 180.901 125.227 180.698C125.587 180.426 125.856 180.033 125.993 179.578C125.993 179.578 127.612 177.203 126.357 172.809C126.357 172.809 126.52 171.566 126.378 171.364L125.415 172.811C125.415 172.811 126.409 173.542 126.524 174.617C126.524 174.617 125.478 172.813 125.269 173.013C125.223 173.054 124.792 173.803 124.792 173.803C124.792 173.803 126.516 175.085 126.644 176.749C126.644 176.749 125.673 174.418 124.625 174.085L124.024 175.259C124.024 175.259 125.907 176.515 126.116 178.404C126.116 178.404 125.022 176.009 123.905 175.525L123.463 176.765C123.463 176.765 125.279 178.03 125.447 179.603C125.447 179.603 123.928 176.974 123.382 177.056C123.382 177.056 123.039 178.221 123.085 178.58C123.085 178.58 124.367 179.52 124.39 180.444C124.39 180.444 123.206 178.805 123.024 178.913C123.024 178.913 122.949 180.561 123.313 181.418C123.313 181.418 122.685 180.194 122.788 178.913C122.421 179.268 122.157 179.734 122.028 180.252C122.028 180.252 121.687 179.346 122.811 178.512C122.811 178.512 122.917 177.23 123.047 177.072C123.047 177.072 121.831 177.723 121.315 178.521C121.315 178.521 121.505 177.331 123.154 176.74L123.572 175.484C123.572 175.484 121.924 176.249 121.415 176.923C121.415 176.923 121.781 175.743 123.702 175.176L124.271 174.03C124.271 174.03 122.806 174.571 122.091 175.176C122.091 175.176 122.645 174.161 124.447 173.693L124.909 172.971C124.909 172.971 123.846 173.386 123.549 173.535C123.252 173.684 123.194 173.611 123.194 173.611C123.737 173.108 124.396 172.779 125.1 172.662C125.1 172.662 126.148 171.243 126.074 171.165Z" fill="#DAAA63"/>
<path d="M149.585 86.4825C148.216 82.4092 140.684 82.0264 137.416 83.0648C135.094 83.8052 130.198 84.6396 127.583 85.059L127.413 84.8825C127.752 84.7725 127.761 84.502 127.719 84.1009C127.695 83.5722 127.702 83.0423 127.74 82.5146C129.342 83.0602 130.769 81.7697 130.769 81.7697C132.652 80.8528 132.146 76.9284 132.506 75.8557C132.776 75.0534 133.067 70.3268 133.196 67.9703H133.224L133.238 67.1795C133.257 66.838 133.265 66.6385 133.265 66.6385C133.265 66.6385 133.45 60.8758 133.809 59.7091C134.144 58.6363 134.416 53.2312 134.458 52.3739C134.458 52.3005 134.458 52.2616 134.458 52.2616L134.431 51.7618C134.45 51.3974 134.458 50.9916 134.456 50.5653C134.456 48.6054 134.27 46.1367 134.247 45.7378C134.247 45.6805 134.247 45.6117 134.247 45.5292C134.261 44.6925 134.165 40.5023 130.912 38.9184C129.713 38.3316 128.271 37.6324 126.876 36.9516C126.516 33.5476 125.694 30.162 125.765 26.7328C125.765 26.217 125.807 25.7013 125.853 25.1878C125.853 25.3368 125.838 25.4881 125.836 25.6462C125.836 25.9786 125.836 26.3133 125.836 26.6457C125.959 22.3569 127.439 18.0451 127.301 13.848C127.288 14.2584 127.261 14.671 127.225 15.0836C127.297 13.6639 127.162 12.2408 126.823 10.8681C126.698 10.3845 126.528 9.88474 126.167 9.56154C125.824 9.30123 125.432 9.13101 125.02 9.06412C124.03 8.78647 123.024 8.58125 122.009 8.44979C121.855 7.9326 121.626 7.44583 121.331 7.00797C119.21 3.81716 116.067 0.818898 112.352 0.131223C110.488 -0.212614 108.343 0.0739166 107.075 1.53408C106.943 1.66235 106.818 1.80019 106.703 1.94668C106.021 2.83837 105.728 4.00971 105.029 4.8991C104.983 4.9587 104.931 5.01371 104.88 5.07102C103.512 6.41199 101.38 6.69164 99.8591 7.89507C99.5911 8.11111 99.3398 8.35108 99.108 8.61254C98.4951 9.27797 97.9455 10.0099 97.4677 10.7971C96.7835 11.8515 96.0806 12.9495 95.863 14.2079C95.4257 16.7294 96.9928 19.1202 97.2836 21.6577C97.9322 27.3356 92.1974 32.374 93.2833 37.9763C93.573 39.3526 94.2128 40.6107 95.1286 41.6049C92.892 43.8238 90.9881 45.9762 90.9881 45.9762V46.1046H90.6345L90.6701 46.563H90.6345L90.8291 49.0501L90.6345 52.6719C90.6345 52.6719 90.6345 52.7108 90.6345 52.7842V52.8025V52.9011C90.6345 52.9011 90.6345 52.9401 90.6345 53.0134H90.6471C90.7119 54.3406 90.9693 59.1131 91.2748 60.1194C91.6346 61.2861 91.8166 67.0488 91.8166 67.0488C91.8166 67.0488 92.2141 75.1932 92.5782 76.2706C92.9422 77.3479 92.4255 81.2608 94.3147 82.1846C94.8674 82.6491 95.5218 82.9463 96.2124 83.0465C96.1161 83.9038 96.1768 84.5249 96.4885 84.7198C96.622 84.8057 96.7732 84.8531 96.9279 84.8573C96.7997 85.0656 96.6857 85.284 96.5869 85.5106C95.837 85.4248 95.1002 85.2346 94.3942 84.9444C92.3648 84.0275 85.63 81.9645 83.6737 83.4155C81.7175 84.8665 77.0101 86.1823 79.1839 92.0229C81.3577 97.8635 82.3703 98.0103 82.3703 98.0103C83.0394 98.5424 83.6264 99.1886 84.1089 99.9243C84.7617 100.999 90.8437 103.459 92.3648 103.459C93.0113 103.448 93.6578 103.483 94.3001 103.564C94.3001 103.564 92.6493 105.151 92.869 106.072C93.0887 106.994 92.3669 114.37 92.3669 114.37C92.3669 114.37 94.0406 116.218 94.7562 113.795L94.7813 113.831C94.9152 114.031 95.6391 114.932 97.0011 113.795C97.5586 113.331 98.1506 112.92 98.7711 112.566L105.366 111.544C106.053 111.497 106.743 111.491 107.431 111.528C108.477 111.622 109.504 110.943 110.151 110.418C111.517 110.987 113.053 111.608 113.783 111.835C115.264 112.293 122.072 114.294 123.664 113.669C123.995 113.524 124.289 113.295 124.522 112.999L126.041 113.052L125.33 113.208C125.33 113.208 126.715 113.233 128.598 113.261L128.518 113.311L130.88 113.288C134.337 113.322 138.22 113.334 138.73 113.208C139.529 113.013 143.683 113.151 144.906 113.208H145.247C145.247 113.208 149.811 112.211 147.928 107.138C146.48 103.241 142.03 102.109 140.055 101.797C140.611 101.676 141.09 101.582 141.408 101.527C142.787 101.297 145.465 99.922 145.683 99.4521C145.9 98.9822 148.145 97.6183 148.725 96.8412C149.304 96.0641 150.959 90.5559 149.585 86.4825ZM111.789 97.8819L111.565 97.9621L111.414 98.0171L111.126 98.3289C110.895 98.1593 110.649 97.9805 110.391 97.7971C110.845 97.8269 111.312 97.8567 111.789 97.8819Z" fill="url(#paint0_linear_127:279)"/>
<path d="M125.129 73.7124C125.129 73.7124 128.33 82.8814 130.15 81.9645C131.97 81.0476 131.477 77.1508 131.824 76.0826C132.171 75.0144 132.556 66.9136 132.556 66.9136C132.556 66.9136 132.732 61.183 133.079 60.0231C133.401 58.9572 133.663 53.5819 133.707 52.7361C133.707 52.6627 133.707 52.6238 133.707 52.6238L133.362 45.9762L131.407 45.4421L126.876 47.2759L126.248 51.2026L126.003 52.7361L125.899 53.3894L125.129 73.7124Z" fill="#BE6F72"/>
<path opacity="0.1" d="M126.183 72.1765C126.183 72.1765 129.238 74.9158 130.158 75.1564C131.079 75.3971 131.644 77.5335 131.644 77.5335" fill="black"/>
<path d="M100.096 74.1136C100.096 74.1136 96.8944 83.2826 95.0742 82.3657C93.254 81.4488 93.7478 77.5519 93.4004 76.4838C93.0531 75.4156 92.6682 67.3148 92.6682 67.3148C92.6682 67.3148 92.4924 61.5841 92.1451 60.4243C91.8229 59.3584 91.5614 53.983 91.5175 53.1372C91.5175 53.0638 91.5175 53.0249 91.5175 53.0249L91.8648 46.3774L93.8189 45.8433L98.3506 47.6771L98.9783 51.6037L99.2231 53.1372L99.3277 53.7905L100.096 74.1136Z" fill="#BE6F72"/>
<path d="M120.94 25.0457H113.795V37.2473H120.94V25.0457Z" fill="#3E373A"/>
<path opacity="0.1" d="M120.94 25.0457H113.795V37.2473H120.94V25.0457Z" fill="black"/>
<path d="M98.8401 83.2458C98.8401 83.2458 96.3985 86.1868 97.3045 86.7209C98.2104 87.2549 104.071 97.2652 104.071 97.2652C104.071 97.2652 123.319 99.8623 126.949 95.9655C130.579 92.0687 130.506 85.1071 130.506 85.1071C130.506 85.1071 127.589 85.7948 127.271 85.4211C126.953 85.0475 125.206 83.2458 125.206 83.2458C125.206 83.2458 100.514 81.6046 98.8401 83.2458Z" fill="#4B4B5B"/>
<path opacity="0.02" d="M98.8401 83.2458C98.8401 83.2458 96.3985 86.1868 97.3045 86.7209C98.2104 87.2549 104.071 97.2652 104.071 97.2652C104.071 97.2652 123.319 99.8623 126.949 95.9655C130.579 92.0687 130.506 85.1071 130.506 85.1071C130.506 85.1071 127.589 85.7948 127.271 85.4211C126.953 85.0475 125.206 83.2458 125.206 83.2458C125.206 83.2458 100.514 81.6046 98.8401 83.2458Z" fill="black"/>
<path d="M133.491 46.0726L127.215 51.574L125.317 51.7252L124.62 51.7803L112.919 52.7201L100.784 51.7482L98.9783 51.6038L96.6768 51.4204L91.8647 46.3774C91.8647 46.3774 95.2709 42.3798 98.2544 39.6818C99.4302 38.6159 100.541 37.754 101.351 37.4147L101.489 37.362C101.998 37.1444 102.453 36.7971 102.815 36.3488C105.171 33.6875 107.349 27.1203 107.349 27.1203C107.349 27.1203 117.741 21.2383 116.486 28.9541C115.231 36.6698 121.158 34.7626 121.158 34.7626L123.112 35.7391L123.884 36.1265L125.853 37.1145L130.294 39.3471C133.78 41.1053 133.491 46.0726 133.491 46.0726Z" fill="#BE6F72"/>
<path opacity="0.1" d="M112.431 33.4033C117.593 33.4033 121.777 28.8189 121.777 23.1638C121.777 17.5087 117.593 12.9243 112.431 12.9243C107.27 12.9243 103.085 17.5087 103.085 23.1638C103.085 28.8189 107.27 33.4033 112.431 33.4033Z" fill="black"/>
<path opacity="0.1" d="M133.506 53.3664H91.5175C91.5175 53.293 91.5175 53.2541 91.5175 53.2541L91.8648 46.6065C91.8648 46.6065 95.2709 42.6089 98.2544 39.9109L124.616 38.7648L125.842 37.3481L130.284 39.5808C133.772 41.3367 133.491 46.304 133.491 46.304C133.491 46.304 133.968 52.0598 133.506 53.3664Z" fill="black"/>
<path d="M133.506 53.1371H91.5175C91.5175 53.0638 91.5175 53.0248 91.5175 53.0248L91.8648 46.3773C91.8648 46.3773 95.2709 42.3796 98.2544 39.6816L124.616 38.5355L125.842 37.1189L130.284 39.3515C133.772 41.1074 133.491 46.0747 133.491 46.0747C133.491 46.0747 133.968 51.8305 133.506 53.1371Z" fill="#FAE0BE"/>
<path opacity="0.1" d="M105.701 34.4967C105.701 34.4967 112.324 43.7436 121.147 34.3064C129.97 24.8692 122.124 55.3562 122.124 55.3562L103.085 57.8318L105.701 34.4967Z" fill="black"/>
<path d="M105.701 34.9552C105.701 34.9552 112.324 44.2021 121.147 34.7649C129.97 25.3277 122.124 55.8147 122.124 55.8147L103.085 58.2903L105.701 34.9552Z" fill="#E7C7CA"/>
<path opacity="0.1" d="M123.873 36.5779L124.574 48.289L125.325 52.1859L125.899 55.1658C125.899 55.1658 127.363 78.0883 126.945 79.2344C126.526 80.3805 127.154 81.2974 127.242 81.9072C127.33 82.5169 127.154 84.0481 127.223 84.7358C127.292 85.4235 127.223 85.7283 125.62 85.4831C124.018 85.2378 121.783 84.8114 121.783 84.8114C121.783 84.8114 116.134 85.2699 114.182 84.5066C112.23 83.7432 108.533 83.741 108.533 83.741C108.533 83.741 102.953 83.8945 101.142 83.6653C99.3297 83.4361 98.3506 86.1111 97.1664 85.3455C95.9822 84.5799 98.5598 77.1714 99.3967 75.0304C100.234 72.8894 98.2816 67.466 98.2816 67.466L100.792 52.2065L101.351 48.7475V37.873L101.489 37.8203C101.998 37.6027 102.453 37.2554 102.815 36.8072L103.443 47.7503L123.11 48.516V36.1997" fill="black"/>
<path d="M123.873 36.1194L124.574 47.8305L125.325 51.7274L125.899 54.7073C125.899 54.7073 127.363 77.6298 126.945 78.7759C126.526 79.922 127.154 80.8389 127.242 81.4487C127.33 82.0584 127.154 83.5896 127.223 84.2773C127.292 84.965 127.223 85.2698 125.62 85.0246C124.018 84.7793 121.783 84.3529 121.783 84.3529C121.783 84.3529 116.134 84.8114 114.182 84.0481C112.23 83.2847 108.533 83.2825 108.533 83.2825C108.533 83.2825 102.953 83.436 101.142 83.2068C99.3297 82.9776 98.3506 85.6526 97.1664 84.887C95.9822 84.1214 98.5598 76.7129 99.3967 74.5719C100.234 72.4309 98.2816 67.0075 98.2816 67.0075L100.792 51.748L101.351 48.289V37.4145L101.489 37.3618C101.998 37.1442 102.453 36.7969 102.815 36.3487L103.443 47.2919L123.11 48.0575V35.7412" fill="#FAE0BE"/>
<path opacity="0.1" d="M126.135 11.6796C126.016 11.2005 125.851 10.7031 125.507 10.3822C125.18 10.1245 124.801 9.95483 124.403 9.88709C123.448 9.61215 122.478 9.40844 121.499 9.27735C121.359 8.76836 121.147 8.2865 120.871 7.84928C118.821 4.6768 115.787 1.68542 112.218 1.00921C110.349 0.653908 108.184 0.97253 106.987 2.58627C106.33 3.47337 106.048 4.6493 105.385 5.52035C104.106 7.21203 101.799 7.42063 100.188 8.7295C99.3277 9.41718 98.7042 10.4143 98.0954 11.3816C97.4363 12.4292 96.7584 13.5203 96.5492 14.7719C96.1308 17.2727 97.6393 19.6567 97.9175 22.1804C98.5452 27.8262 93.0217 32.8348 94.0658 38.405C94.6746 41.6531 97.4133 43.9407 100.246 45.1006C101.244 45.5109 102.384 45.9189 102.851 46.9688C103.06 47.4272 103.096 47.9568 103.292 48.4198C103.954 49.9648 106.127 50.0244 107.295 48.8989C108.462 47.7734 108.83 45.9533 108.969 44.2548C109.529 36.8371 106.818 29.5087 107.134 22.0727C107.228 19.824 107.805 17.2727 109.644 16.255C112.119 14.8796 115.097 17.1719 117.821 16.734C119.11 20.1704 119.383 23.963 118.603 27.5787C118.17 29.5569 117.421 31.4755 117.367 33.5156C117.285 36.6216 118.815 39.4594 120.137 42.2055C120.421 42.719 120.61 43.2882 120.695 43.8811C120.716 44.4828 120.614 45.0819 120.396 45.6347C119.649 47.8376 118.36 49.8822 118.214 52.2272C118.171 52.501 118.227 52.7822 118.371 53.0112C118.518 53.164 118.709 53.2577 118.911 53.2771C121.17 53.7011 123.124 51.5075 124.227 49.3046C125.456 46.8716 126.173 44.1678 126.323 41.3918C126.551 36.7247 125.024 32.1334 125.118 27.4618C125.227 22.1506 127.418 16.8028 126.135 11.6796Z" fill="black"/>
<path d="M126.344 11.4504C126.225 10.9713 126.06 10.4739 125.717 10.153C125.389 9.8952 125.011 9.72558 124.612 9.65784C123.658 9.38291 122.688 9.17919 121.708 9.0481C121.568 8.53911 121.356 8.05725 121.08 7.62003C119.03 4.44756 115.996 1.45617 112.427 0.779958C110.559 0.42466 108.393 0.743282 107.196 2.35703C106.54 3.24413 106.257 4.42005 105.594 5.2911C104.316 6.98278 102.008 7.19138 100.397 8.50025C99.5369 9.18793 98.9134 10.1851 98.3046 11.1524C97.6455 12.1999 96.9677 13.2911 96.7584 14.5426C96.34 17.0435 97.8485 19.4274 98.1268 21.9512C98.7544 27.597 93.231 32.6055 94.275 38.1757C94.8838 41.4238 97.6225 43.7115 100.455 44.8714C101.453 45.2817 102.594 45.6897 103.06 46.7396C103.269 47.198 103.305 47.7275 103.502 48.1905C104.163 49.7355 106.337 49.7951 107.504 48.6696C108.671 47.5441 109.04 45.7241 109.178 44.0255C109.739 36.6078 107.027 29.2795 107.343 21.8434C107.437 19.5947 108.015 17.0435 109.854 16.0257C112.329 14.6504 115.306 16.9426 118.03 16.5048C119.319 19.9412 119.593 23.7338 118.812 27.3494C118.379 29.3276 117.63 31.2462 117.576 33.2863C117.494 36.3923 119.024 39.2301 120.346 41.9763C120.63 42.4898 120.819 43.0589 120.905 43.6519C120.925 44.2535 120.823 44.8527 120.605 45.4055C119.859 47.6083 118.57 49.653 118.423 51.998C118.38 52.2717 118.437 52.553 118.58 52.7819C118.728 52.9347 118.918 53.0284 119.12 53.0478C121.38 53.4719 123.334 51.2782 124.436 49.0754C125.666 46.6423 126.382 43.9385 126.533 41.1625C126.761 36.4955 125.233 31.9041 125.328 27.2325C125.436 21.9214 127.627 16.5736 126.344 11.4504Z" fill="#3E373A"/>
<path d="M121.723 112.944L130.022 113.235L128.832 106.491L122.474 107.154L121.723 112.944Z" fill="#C3C7D9"/>
<path d="M147.44 96.9604C146.881 97.7237 144.72 99.0991 144.511 99.5575C144.302 100.016 141.722 101.391 140.396 101.621C139.069 101.85 134.887 102.845 134.119 103.379C133.569 103.764 129.152 104.983 126.25 105.659C125.464 105.863 124.669 106.02 123.867 106.129C122.612 106.205 108.874 101.086 108.874 101.086L111.523 98.1065L111.67 98.0515C112.419 97.7741 115.879 96.4928 117.8 95.883C119.963 95.1954 122.474 92.369 122.474 92.369C122.474 92.369 126.169 90.9937 126.658 90.8401C127.148 90.6865 125.403 85.4923 125.403 85.4923C125.403 85.4923 133.422 84.2728 136.561 83.239C139.699 82.2052 146.953 82.588 148.277 86.6384C149.601 90.6888 148.007 96.1971 147.44 96.9604Z" fill="#4B4B5B"/>
<path d="M110.896 109.873C110.896 109.873 109.293 111.706 107.688 111.555C106.083 111.404 100.472 112.014 100.472 112.014C99.4552 112.458 98.503 113.063 97.6455 113.808C96.3337 114.941 95.637 114.038 95.5073 113.845L95.4843 113.808C94.7855 116.218 93.1829 114.382 93.1829 114.382C93.1829 114.382 93.8796 107.046 93.6662 106.129C93.4528 105.213 95.0449 103.638 95.0449 103.638L96.9279 103.113L101.698 101.774L108.533 104.371L110.896 109.873Z" fill="#F7D5AC"/>
<path opacity="0.1" d="M96.9195 103.113L95.5073 113.845L95.4843 113.808C94.7855 116.218 93.1829 114.381 93.1829 114.381C93.1829 114.381 93.8796 107.046 93.6662 106.129C93.4528 105.212 95.0449 103.638 95.0449 103.638L96.9195 103.113Z" fill="black"/>
<path opacity="0.1" d="M106.791 72.5845C106.791 72.5845 110.485 73.9598 113.695 72.5845H106.791Z" fill="black"/>
<path opacity="0.1" d="M119.404 75.1841C119.404 75.1841 120.938 76.023 122.124 75.1841H119.404Z" fill="black"/>
<path opacity="0.1" d="M119.404 77.1737C119.404 77.1737 121.984 77.5519 122.474 76.7886L119.404 77.1737Z" fill="black"/>
<path opacity="0.1" d="M118.568 81.4488C118.568 81.4488 123.413 80.7611 124.616 79.8442L118.568 81.4488Z" fill="black"/>
<path opacity="0.1" d="M103.782 79.8442C103.782 79.8442 106.502 81.5245 108.525 81.4488L103.782 79.8442Z" fill="black"/>
<path opacity="0.1" d="M126.248 105.659C125.462 105.863 124.667 106.02 123.865 106.129C122.61 106.205 108.872 101.086 108.872 101.086L111.521 98.1065L111.668 98.0515C112.086 98.3747 112.429 98.6521 112.674 98.863C113.827 99.8578 114.94 98.5581 115.358 98.5581C115.777 98.5581 119.402 101.843 119.402 101.843C119.402 101.843 122.75 102.684 123.309 103.447C123.867 104.211 125.819 104.06 126.167 104.594C126.271 104.759 126.284 105.164 126.248 105.659Z" fill="black"/>
<path d="M100.472 85.804C100.472 85.804 97.0869 86.0172 95.1348 85.1164C93.1828 84.2155 86.697 82.1364 84.814 83.5966C82.931 85.0568 78.3972 86.3473 80.4894 92.1559C82.5816 97.9644 83.5586 98.1157 83.5586 98.1157C84.206 98.6476 84.7711 99.29 85.2324 100.018C85.8601 101.089 91.7183 103.532 93.1828 103.532C94.6474 103.532 97.2271 103.532 100.853 106.283C104.479 109.034 107.757 109.341 107.757 109.341C107.757 109.341 112.36 111.404 113.793 111.862C115.226 112.321 121.775 114.306 123.311 113.696C124.846 113.086 125.821 109.263 125.821 109.263C125.821 109.263 126.518 105.825 126.169 105.29C125.819 104.756 123.867 104.908 123.311 104.144C122.754 103.381 119.404 102.54 119.404 102.54C119.404 102.54 115.787 99.2527 115.369 99.2527C114.95 99.2527 113.837 100.55 112.684 99.5575C110.388 97.694 107.975 96.0089 105.464 94.5146C102.815 92.9857 100.472 85.804 100.472 85.804Z" fill="#4B4B5B"/>
<path opacity="0.1" d="M93.6661 88.0207C94.2689 87.8858 94.8919 87.9052 95.4867 88.0774C96.0815 88.2495 96.632 88.5698 97.0953 89.0133C98.769 90.5422 104.401 93.6115 104.401 93.6115" fill="black"/>
<path opacity="0.1" d="M135.515 87.9243C135.515 87.9243 128.052 89.1621 126.658 90.8424L135.515 87.9243Z" fill="black"/>
<path d="M144.093 113.235H143.764C142.584 113.19 138.586 113.052 137.816 113.235C136.91 113.465 124.913 113.235 124.913 113.235L127.259 112.701C127.259 112.701 126.388 109.359 126.941 109.082C126.941 109.082 123.802 106.817 126.169 105.288C128.535 103.759 131.085 104.403 131.085 104.403L137.025 102.198L138.165 101.774C138.165 101.774 144.86 102.157 146.672 107.2C148.484 112.243 144.093 113.235 144.093 113.235Z" fill="#F7D5AC"/>
<path opacity="0.1" d="M144.093 113.235H143.764C145.712 111.475 150.118 106.116 137.025 102.21L138.165 101.786C138.165 101.786 144.86 102.168 146.672 107.211C148.484 112.254 144.093 113.235 144.093 113.235Z" fill="black"/>
<path d="M131.784 107.294C131.986 107.294 132.15 107.114 132.15 106.893C132.15 106.671 131.986 106.491 131.784 106.491C131.582 106.491 131.418 106.671 131.418 106.893C131.418 107.114 131.582 107.294 131.784 107.294Z" fill="#4B4B5B"/>
<path d="M129.656 107.956C129.859 107.956 130.022 107.777 130.022 107.555C130.022 107.334 129.859 107.154 129.656 107.154C129.454 107.154 129.29 107.334 129.29 107.555C129.29 107.777 129.454 107.956 129.656 107.956Z" fill="#4B4B5B"/>
<g opacity="0.1">
<path opacity="0.1" d="M119.289 22.7856C119.371 20.2644 118.961 17.753 118.089 15.4183C115.369 15.863 112.389 13.5639 109.912 14.9393C108.079 15.957 107.504 18.5083 107.401 20.757C107.376 21.3507 107.372 21.9444 107.383 22.5381C107.383 22.3272 107.383 22.114 107.401 21.9031C107.498 19.6544 108.073 17.1032 109.912 16.0854C112.389 14.71 115.364 17.0023 118.089 16.5645C118.828 18.542 119.234 20.6496 119.289 22.7856Z" fill="black"/>
<path opacity="0.1" d="M98.2125 22.3662C98.2483 21.8667 98.2392 21.3646 98.1853 20.867C97.9635 18.8499 96.9572 16.9221 96.7752 14.9553C96.5408 17.3278 97.9196 19.6063 98.1853 22.0132C98.2125 22.1369 98.2125 22.247 98.2125 22.3662Z" fill="black"/>
<path opacity="0.1" d="M109.236 42.9368C109.107 44.6377 108.741 46.4554 107.563 47.5832C106.385 48.711 104.215 48.6491 103.56 47.1041C103.351 46.6457 103.32 46.1116 103.117 45.6531C102.652 44.6033 101.51 44.1953 100.512 43.7849C97.6769 42.6228 94.9424 40.3466 94.3336 37.0893C94.2792 36.7942 94.2422 36.4956 94.2227 36.1953C94.1713 36.8777 94.2086 37.5646 94.3336 38.2354C94.9424 41.4835 97.6811 43.7689 100.512 44.9311C101.51 45.3414 102.652 45.7494 103.117 46.7993C103.326 47.2577 103.361 47.7872 103.56 48.2502C104.219 49.7952 106.393 49.8548 107.563 48.7293C108.732 47.6038 109.096 45.7838 109.236 44.0829C109.3 43.1877 109.322 42.2895 109.301 41.3918C109.301 41.9122 109.274 42.4256 109.236 42.9368Z" fill="black"/>
<path opacity="0.1" d="M125.397 26.146C125.397 26.4784 125.397 26.8085 125.397 27.1386C125.514 22.875 126.941 18.5885 126.8 14.4143C126.692 18.2745 125.476 22.2217 125.397 26.146Z" fill="black"/>
<path opacity="0.1" d="M120.907 43.3928C120.958 43.1208 120.974 42.8422 120.955 42.5653C120.871 41.9721 120.681 41.4027 120.396 40.8897C119.187 38.3682 117.808 35.7871 117.645 32.9883C117.645 33.1075 117.63 33.2175 117.628 33.3459C117.544 36.4496 119.074 39.2897 120.396 42.0358C120.621 42.4611 120.793 42.9175 120.907 43.3928Z" fill="black"/>
<path opacity="0.1" d="M126.6 40.0761C126.443 42.8532 125.722 45.5569 124.489 47.989C123.384 50.1918 121.432 52.3855 119.17 51.9614C118.968 51.9423 118.777 51.8476 118.63 51.6932C118.588 51.6407 118.555 51.5801 118.532 51.5145C118.507 51.6932 118.486 51.8743 118.474 52.0577C118.43 52.3307 118.487 52.6114 118.63 52.8394C118.777 52.9938 118.968 53.0884 119.17 53.1076C121.432 53.5316 123.384 51.3379 124.489 49.1351C125.722 46.703 126.443 43.9994 126.6 41.2223C126.625 40.6859 126.627 40.1518 126.612 39.6177C126.608 39.7713 126.608 39.9225 126.6 40.0761Z" fill="black"/>
</g>
<path opacity="0.1" d="M126.941 109.082C126.941 109.082 132.236 111.516 135.728 106.129" stroke="black" stroke-miterlimit="10"/>
<path opacity="0.1" d="M127.983 113.336C127.983 113.336 132.307 110.255 137.816 113.235" stroke="black" stroke-miterlimit="10"/>
<path opacity="0.1" d="M99.0347 112.637C99.0347 112.637 100.851 108.149 105.701 111.571" stroke="black" stroke-miterlimit="10"/>
<path opacity="0.1" d="M93.1473 46.2628L96.8505 42.5952C96.8505 42.5952 111.209 41.5637 111.804 46.9115C111.804 46.9115 116.894 40.5712 127.6 41.9832L132.129 45.935L119.61 51.9545L107.443 56.578L98.4824 52.1837L93.1473 46.2628Z" fill="black"/>
<path d="M93.1473 46.4918L96.8505 42.8242C96.8505 42.8242 111.209 41.7927 111.804 47.1405C111.804 47.1405 116.894 40.8002 127.6 42.2122L132.129 46.164L119.61 52.1835L107.443 56.807L98.4824 52.4127L93.1473 46.4918Z" fill="#D5D6DB"/>
<path opacity="0.1" d="M91.509 46.9504L93.1472 68.4219L110.513 69.3778L109.759 47.998L109.745 47.6381L91.509 46.9504Z" fill="black"/>
<path d="M91.509 46.4919L93.1472 67.9634L110.513 68.9193L109.759 47.5395L109.745 47.1796L91.509 46.4919Z" fill="#6C63FF"/>
<path opacity="0.1" d="M132.924 46.4919L115.011 49.4352V71.003L132.516 68.2316L132.924 46.4919Z" fill="black"/>
<path d="M132.924 46.0334L115.011 48.9767V70.5445L132.516 67.7731L132.924 46.0334Z" fill="#6C63FF"/>
<path opacity="0.3" d="M128.7 51.2964L119.024 52.4746L119.235 56.0872L128.694 54.9548L128.7 51.2964Z" fill="white"/>
<path d="M94.0888 79.4615L95.0742 82.3657C95.0742 82.3657 96.5387 83.7411 98.1414 83.0534C99.744 82.3657 101.142 82.0242 101.838 81.3549C102.535 80.6855 103.512 77.3228 103.512 77.3228C103.512 77.3228 104.489 73.6552 105.464 72.7383C106.439 71.8214 109.021 59.1888 105.464 60.4243C101.907 61.6598 99.1875 73.1211 99.1875 73.1211C99.1875 73.1211 98.5598 73.9601 97.6539 74.038C96.748 74.1159 94.934 73.8844 94.5846 74.7257C94.2352 75.5669 93.0427 77.7812 94.0888 79.4615Z" fill="#BE6F72"/>
<path opacity="0.1" d="M115.011 49.433C114.094 49.6594 113.141 49.6476 112.229 49.3984C111.316 49.1493 110.47 48.6697 109.757 47.998L110.513 69.3756C110.513 69.3756 112.291 71.4844 115.011 71.0031V49.433Z" fill="black"/>
<path d="M115.011 48.9745C114.094 49.2009 113.141 49.1891 112.229 48.9399C111.316 48.6908 110.47 48.2112 109.757 47.5396L110.513 68.9171C110.513 68.9171 112.291 71.0259 115.011 70.5446V48.9745Z" fill="#6C63FF"/>
<path opacity="0.1" d="M115.011 48.9745C114.094 49.2009 113.141 49.1891 112.229 48.9399C111.316 48.6908 110.47 48.2112 109.757 47.5396L110.135 58.2283L110.513 68.9171C110.513 68.9171 112.291 71.0259 115.011 70.5446V48.9745Z" fill="black"/>
<path opacity="0.1" d="M115.429 46.5652C115.429 46.5652 122.716 44.1239 124.616 44.4678L115.429 46.5652Z" fill="black"/>
<path opacity="0.1" d="M107.278 45.4994C107.278 45.4994 100.215 43.6656 99.0347 44.186L107.278 45.4994Z" fill="black"/>
<path opacity="0.1" d="M120.024 46.8702C120.024 46.8702 124.897 44.9126 126.658 45.8432L120.024 46.8702Z" fill="black"/>
<path opacity="0.1" d="M117.57 95.977C118.325 95.3557 119.128 94.8087 119.971 94.3426C121.227 93.6801 123.528 91.9609 123.528 91.9609" fill="black"/>
<path opacity="0.1" d="M99.0348 72.5845C99.0348 72.5845 95.978 75.3237 95.0596 75.5644C94.1411 75.8051 93.5741 77.9415 93.5741 77.9415" fill="black"/>
<path d="M131.127 79.0535L130.152 81.9646C130.152 81.9646 128.688 83.34 127.083 82.6523C125.478 81.9646 124.085 81.6231 123.386 80.9537C122.687 80.2844 121.712 76.9217 121.712 76.9217C121.712 76.9217 120.737 73.2541 119.76 72.3372C118.783 71.4203 116.203 58.7877 119.76 60.0232C123.317 61.2587 126.037 72.72 126.037 72.72C126.037 72.72 126.664 73.5589 127.57 73.6369C128.476 73.7148 130.29 73.4833 130.64 74.3245C130.989 75.1658 132.173 77.3801 131.127 79.0535Z" fill="#BE6F72"/>
<path opacity="0.1" d="M129.418 73.6987C129.418 73.6987 131.416 75.1062 131.408 76.7887L129.418 73.6987Z" fill="black"/>
<path d="M112.465 32.9013C117.626 32.9013 121.811 28.3169 121.811 22.6618C121.811 17.0067 117.626 12.4224 112.465 12.4224C107.303 12.4224 103.119 17.0067 103.119 22.6618C103.119 28.3169 107.303 32.9013 112.465 32.9013Z" fill="#BE6F72"/>
<path d="M106.596 19.9132C107.73 19.7184 108.724 18.9963 109.807 18.5814C112.232 17.6485 114.915 18.288 117.369 19.1293C118.31 19.4525 119.266 19.817 120.254 19.817C121.241 19.817 122.29 19.3746 122.794 18.4416C123.258 17.5843 123.168 16.4703 122.777 15.5694C122.386 14.6686 121.731 13.9442 121.07 13.2611C118.894 11.0101 116.195 8.90585 113.209 9.13508C112.009 9.22906 110.86 9.69897 109.755 10.2193C108.364 10.876 107.01 11.6231 105.7 12.4565C104.694 13.0961 102.83 13.9511 102.25 15.1201C100.932 17.7539 104.546 20.2662 106.596 19.9132Z" fill="#3E373A"/>
<path opacity="0.1" d="M122.794 17.479C122.29 18.412 121.241 18.8544 120.254 18.8544C119.266 18.8544 118.31 18.5037 117.367 18.1805C114.913 17.3392 112.232 16.6974 109.805 17.6326C108.724 18.0475 107.728 18.7787 106.594 18.9621C104.941 19.2464 102.28 17.6693 101.991 15.6636C101.667 17.981 104.753 19.9661 106.594 19.6498C107.728 19.455 108.724 18.7329 109.805 18.3203C112.232 17.3851 114.913 18.0269 117.367 18.8681C118.31 19.1913 119.264 19.5558 120.254 19.5421C121.244 19.5283 122.29 19.1019 122.794 18.1667C123.055 17.6579 123.158 17.0697 123.087 16.4911C123.054 16.8394 122.954 17.1762 122.794 17.479Z" fill="black"/>
<path d="M198.639 141.708C198.639 141.708 199.879 143.484 198.065 146.168C196.251 148.852 194.758 151.117 195.36 152.791C195.36 152.791 198.097 147.807 200.323 147.736C202.549 147.665 201.084 144.703 198.639 141.708Z" fill="#DAAA63"/>
<path opacity="0.1" d="M198.639 141.708C198.747 141.879 198.832 142.067 198.892 142.265C201.063 145.061 202.223 147.672 200.132 147.736C198.187 147.798 195.854 151.61 195.295 152.57C195.313 152.648 195.335 152.725 195.36 152.8C195.36 152.8 198.097 147.816 200.323 147.745C202.549 147.674 201.084 144.703 198.639 141.708Z" fill="black"/>
<path d="M200.94 143.972C200.94 144.598 200.875 145.105 200.798 145.105C200.72 145.105 200.653 144.598 200.653 143.972C200.653 143.346 200.733 143.642 200.812 143.642C200.892 143.642 200.94 143.346 200.94 143.972Z" fill="#FFD037"/>
<path d="M201.733 144.719C201.233 145.017 200.796 145.198 200.758 145.123C200.72 145.047 201.095 144.742 201.595 144.435C202.095 144.128 201.898 144.353 201.936 144.435C201.974 144.518 202.235 144.419 201.733 144.719Z" fill="#FFD037"/>
<path d="M192.082 141.708C192.082 141.708 190.841 143.484 192.655 146.168C194.469 148.852 195.963 151.117 195.358 152.791C195.358 152.791 192.623 147.807 190.395 147.736C188.167 147.665 189.642 144.703 192.082 141.708Z" fill="#DAAA63"/>
<path opacity="0.1" d="M192.082 141.708C191.974 141.879 191.888 142.067 191.828 142.265C189.657 145.061 188.498 147.672 190.588 147.736C192.531 147.798 194.866 151.61 195.425 152.57C195.407 152.648 195.385 152.725 195.358 152.8C195.358 152.8 192.623 147.816 190.395 147.745C188.167 147.674 189.642 144.703 192.082 141.708Z" fill="black"/>
<path d="M189.776 143.972C189.776 144.598 189.839 145.105 189.918 145.105C189.998 145.105 190.063 144.598 190.063 143.972C190.063 143.346 189.981 143.642 189.904 143.642C189.826 143.642 189.776 143.346 189.776 143.972Z" fill="#FFD037"/>
<path d="M188.985 144.719C189.485 145.017 189.922 145.198 189.96 145.123C189.998 145.047 189.623 144.742 189.123 144.435C188.623 144.128 188.82 144.353 188.782 144.435C188.745 144.518 188.483 144.419 188.985 144.719Z" fill="#FFD037"/>
<path opacity="0.1" d="M195.36 166.388C202.524 166.388 208.332 165.412 208.332 164.208C208.332 163.004 202.524 162.028 195.36 162.028C188.196 162.028 182.388 163.004 182.388 164.208C182.388 165.412 188.196 166.388 195.36 166.388Z" fill="#956D31"/>
<path d="M202.036 150.395L201.974 150.95L201.886 151.734L201.85 152.061L201.762 152.845L201.725 153.173L201.639 153.955L200.645 162.872C200.557 163.667 199.371 164.288 197.938 164.288H192.78C191.347 164.288 190.163 163.667 190.073 162.872L189.079 153.955L188.991 153.173L188.956 152.845L188.868 152.061L188.83 151.734L188.745 150.95L188.682 150.395C188.634 149.937 189.274 149.565 190.086 149.565H200.635C201.444 149.565 202.087 149.943 202.036 150.395Z" fill="#65617D"/>
<path d="M201.974 150.95L201.888 151.734H188.832L188.745 150.95H201.974Z" fill="#9D9CB5"/>
<path d="M201.85 152.062L201.764 152.845H188.956L188.868 152.062H201.85Z" fill="#9D9CB5"/>
<path d="M201.727 153.173L201.639 153.957H189.079L188.993 153.173H201.727Z" fill="#9D9CB5"/>
<defs>
<linearGradient id="paint0_linear_127:279" x1="114.369" y1="115.051" x2="114.369" y2="-0.00172813" gradientUnits="userSpaceOnUse">
<stop stop-color="#808080" stop-opacity="0.25"/>
<stop offset="0.54" stop-color="#808080" stop-opacity="0.12"/>
<stop offset="1" stop-color="#808080" stop-opacity="0.1"/>
</linearGradient>
</defs>
</svg>
