<svg width="589" height="693" viewBox="0 0 589 693" fill="none" xmlns="http://www.w3.org/2000/svg">
<path d="M256.489 659.36L254.619 667.54L255.069 668.03C254.969 668.28 254.869 668.53 254.749 668.78C253.755 671.023 252.62 673.201 251.349 675.3C249.669 678.09 247.789 680.78 245.839 683.42C244.769 684.88 243.669 686.33 242.569 687.77C242.539 687.819 242.505 687.866 242.469 687.91C242.481 687.859 242.498 687.808 242.519 687.76L242.159 687.68L240.089 678.7L239.459 680.12V680.13L238.439 682.48C238.519 682.91 238.599 683.33 238.699 683.75C238.689 683.74 238.689 683.72 238.679 683.71C238.669 683.7 238.669 683.7 238.669 683.69C238.539 683.41 238.399 683.14 238.269 682.86L236.709 686.44L233.549 685.72C231.889 684.86 230.229 683.99 228.579 683.09C206.039 670.86 185.169 655.25 171.119 634C165.534 625.535 161.312 616.245 158.609 606.47C153.279 587.05 154.199 566.15 163.899 548.8C163.899 548.799 163.899 548.797 163.899 548.796C163.9 548.795 163.901 548.794 163.902 548.793C163.902 548.792 163.904 548.791 163.905 548.791C163.906 548.79 163.907 548.79 163.909 548.79C164.149 548.35 164.399 547.91 164.659 547.47C164.849 547.97 165.029 548.47 165.229 548.97V548.98C167.836 555.771 170.983 562.342 174.639 568.63C174.919 569.12 175.199 569.61 175.499 570.09C184.43 585.082 196.067 598.286 209.819 609.03C209.856 609.066 209.896 609.1 209.939 609.13C209.986 609.17 210.036 609.207 210.089 609.24C213.149 611.64 216.312 613.897 219.579 616.01V616.02C222.129 617.68 224.749 619.25 227.409 620.74C233.079 623.9 239.249 626.94 244.549 630.73C249.699 634.4 254.039 638.77 256.349 644.62C256.529 645.09 256.699 645.56 256.849 646.03L252.729 658.74L256.489 659.36Z" fill="#F0F0F0"/>
<path d="M239.459 680.12V680.13L238.439 682.48C236.899 673.92 238.729 664.87 237.459 656.2C237.319 655.23 237.139 654.26 236.909 653.3C235.609 647.82 232.639 642.69 227.359 640.24C225.818 639.538 224.2 639.018 222.539 638.69C219.259 637.99 215.839 637.84 212.529 637.45C211.699 637.35 210.879 637.24 210.079 637.09C205.799 636.427 201.712 634.848 198.099 632.46C193.675 629.316 189.819 625.44 186.699 621C184.637 618.213 182.717 615.322 180.949 612.34C180.709 611.96 180.489 611.57 180.259 611.18C176.12 604.012 172.726 596.439 170.129 588.58C168.791 584.563 167.669 580.477 166.769 576.34C164.765 567.3 163.802 558.059 163.899 548.8C163.899 548.799 163.899 548.797 163.899 548.796C163.9 548.795 163.901 548.794 163.902 548.793C163.903 548.792 163.904 548.791 163.905 548.791C163.906 548.79 163.907 548.79 163.909 548.79C163.899 548.37 163.909 547.95 163.919 547.53C163.939 546.67 165.269 546.86 165.249 547.72C165.239 548.14 165.229 548.55 165.229 548.97V548.98C165.147 557.851 166.043 566.705 167.899 575.38C167.999 575.82 168.099 576.26 168.189 576.7C170.892 588.722 175.436 600.255 181.659 610.89C181.729 611.01 181.799 611.13 181.879 611.25C183.329 613.72 184.889 616.12 186.529 618.47C189.542 622.994 193.247 627.016 197.509 630.39C201.095 633.072 205.259 634.877 209.669 635.66C210.109 635.74 210.549 635.82 210.999 635.89C211.349 635.95 211.709 636 212.069 636.04C215.439 636.46 218.899 636.62 222.249 637.26C223.772 637.548 225.267 637.966 226.719 638.51C229.095 639.462 231.242 640.906 233.021 642.746C234.8 644.587 236.169 646.783 237.039 649.19C237.93 651.526 238.541 653.96 238.859 656.44C238.969 657.25 239.049 658.06 239.119 658.88V658.89C239.219 660.21 239.269 661.54 239.289 662.87C239.309 664.53 239.279 666.19 239.239 667.84C239.017 671.933 239.09 676.037 239.459 680.12Z" fill="white"/>
<path d="M181.518 612.06C177.707 613.996 173.333 614.514 169.176 613.521C165.018 612.529 161.349 610.092 158.823 606.644C158.315 605.945 159.378 605.122 159.887 605.822C162.233 609.037 165.651 611.307 169.524 612.223C173.397 613.139 177.47 612.64 181.008 610.817C181.777 610.421 182.283 611.667 181.518 612.06H181.518Z" fill="white"/>
<path d="M209.539 636.059C212.323 627.778 211.884 618.752 208.309 610.78C207.954 609.991 209.198 609.482 209.553 610.27C213.257 618.573 213.695 627.967 210.779 636.578C210.5 637.399 209.262 636.876 209.539 636.059H209.539Z" fill="white"/>
<path d="M167.51 575.504C169.141 575.062 170.636 574.222 171.862 573.06C173.087 571.898 174.005 570.449 174.533 568.845C174.801 568.021 176.039 568.545 175.773 569.363C175.182 571.133 174.166 572.732 172.815 574.019C171.463 575.306 169.817 576.243 168.021 576.747C167.855 576.809 167.672 576.805 167.51 576.737C167.347 576.669 167.216 576.542 167.144 576.381C167.077 576.216 167.078 576.031 167.147 575.867C167.215 575.703 167.346 575.572 167.51 575.504H167.51Z" fill="white"/>
<path d="M242.409 687.99C242.429 687.96 242.449 687.94 242.469 687.91C242.429 688.03 242.389 688.15 242.359 688.28L242.409 687.99Z" fill="#F0F0F0"/>
<path d="M272.139 626.43L270.739 631.33L262.139 629.72L259.289 638.51L258.799 640.02L256.849 646.03L252.729 658.74L256.489 659.36L254.619 667.54L255.069 668.03L255.209 668.18L256.139 669.2L261.799 675.38L246.319 688.63L243.839 688.06L242.569 687.77C242.539 687.819 242.505 687.866 242.469 687.91C242.481 687.859 242.498 687.808 242.519 687.76L242.159 687.68L240.089 678.7L239.459 680.12V680.13L238.439 682.48C238.519 682.91 238.599 683.33 238.699 683.75C238.689 683.74 238.689 683.72 238.679 683.71C238.669 683.7 238.669 683.7 238.669 683.69C238.539 683.41 238.399 683.14 238.269 682.86C236.289 678.73 234.399 674.54 232.649 670.3C228.336 660.089 224.952 649.509 222.539 638.69C222.439 638.22 222.329 637.75 222.249 637.27V637.26C220.782 630.265 219.889 623.161 219.579 616.02V616.01C219.419 612.101 219.459 608.185 219.699 604.28C220.331 594.186 222.548 584.255 226.269 574.85C226.289 574.8 226.309 574.76 226.329 574.71C233.459 556.77 246.009 541.21 263.069 532.92C263.779 532.56 264.509 532.22 265.239 531.9H265.259L265.269 531.89C265.729 531.69 266.179 531.5 266.639 531.3C266.489 531.82 266.329 532.34 266.189 532.87C264.171 539.857 262.726 546.998 261.869 554.22V554.23C261.789 554.78 261.719 555.35 261.659 555.91V555.92C259.772 573.34 261.135 590.958 265.679 607.88C265.689 607.93 265.709 607.97 265.719 608.02C267.416 614.302 269.561 620.455 272.139 626.43Z" fill="#F0F0F0"/>
<path d="M256.139 669.2C255.349 670.26 254.539 671.29 253.719 672.32C252.929 673.31 252.139 674.3 251.349 675.3C249.284 677.844 247.44 680.561 245.839 683.42C245.036 684.904 244.367 686.457 243.839 688.06L242.569 687.77C242.539 687.819 242.505 687.866 242.469 687.91C242.481 687.859 242.498 687.808 242.519 687.76C244.849 680.48 250.149 674.84 254.749 668.78C254.909 668.58 255.059 668.38 255.209 668.18L256.139 669.2Z" fill="white"/>
<path d="M266.969 531.86C266.709 532.19 266.439 532.53 266.189 532.87C264.239 535.4 262.395 538.01 260.659 540.7C257.566 545.446 254.819 550.409 252.439 555.55C252.249 555.95 252.059 556.36 251.879 556.77C246.786 568.003 243.466 579.959 242.039 592.21C242.019 592.33 242.009 592.44 241.999 592.56C241.669 595.42 241.456 598.29 241.359 601.17C241.04 606.593 241.576 612.033 242.949 617.29C243.149 617.98 243.369 618.66 243.609 619.32C244.21 620.938 244.964 622.494 245.859 623.97C246.502 625.047 247.217 626.079 247.999 627.06C248.469 627.66 248.959 628.25 249.479 628.82C249.779 629.15 250.089 629.48 250.399 629.81C250.659 630.06 250.909 630.32 251.169 630.57C253.869 633.19 256.849 635.62 259.289 638.51L258.799 640.02C256.449 637.04 253.419 634.57 250.689 631.97C248.975 630.358 247.415 628.591 246.029 626.69C245.849 626.43 245.659 626.17 245.489 625.9C244.562 624.546 243.762 623.11 243.099 621.61C242.759 620.86 242.449 620.09 242.169 619.29C240.535 614.12 239.791 608.709 239.969 603.29C240.001 599.818 240.208 596.351 240.589 592.9C240.629 592.45 240.679 592.01 240.739 591.56C241.753 583.347 243.602 575.258 246.259 567.42C249.621 557.477 254.245 548.006 260.019 539.24C261.669 536.73 263.419 534.28 265.269 531.89C265.509 531.56 265.759 531.24 266.019 530.91C266.549 530.23 267.499 531.18 266.969 531.86Z" fill="white"/>
<path d="M241.215 593.026C237.007 592.277 233.203 590.057 230.481 586.762C227.759 583.467 226.297 579.312 226.355 575.039C226.359 574.864 226.431 574.698 226.555 574.576C226.679 574.453 226.845 574.384 227.02 574.381C227.194 574.379 227.362 574.445 227.489 574.564C227.616 574.684 227.692 574.848 227.7 575.022C227.638 579.002 229 582.872 231.541 585.935C234.082 588.998 237.634 591.052 241.556 591.726C242.409 591.874 242.062 593.173 241.215 593.026Z" fill="white"/>
<path d="M249.138 629.059C256.347 624.123 261.431 616.652 263.377 608.135C263.569 607.291 264.868 607.633 264.677 608.476C262.636 617.336 257.329 625.1 249.816 630.22C249.1 630.707 248.426 629.544 249.138 629.059H249.138Z" fill="white"/>
<path d="M252.04 555.405C253.608 556.034 255.307 556.264 256.986 556.074C258.664 555.884 260.269 555.28 261.656 554.316C262.366 553.82 263.04 554.984 262.334 555.477C260.796 556.534 259.023 557.199 257.169 557.413C255.315 557.627 253.437 557.384 251.699 556.705C251.529 556.655 251.386 556.542 251.297 556.389C251.208 556.237 251.18 556.056 251.219 555.884C251.265 555.712 251.377 555.566 251.531 555.476C251.685 555.386 251.868 555.361 252.04 555.405Z" fill="white"/>
<path d="M394.598 111.928C387.027 71.4075 398.947 25.309 432.077 0.782227C430.199 45.5698 444.224 89.5779 471.67 125.02C482.304 138.651 495.552 152.704 495.14 169.987C494.884 180.741 489.068 190.759 481.404 198.307C473.739 205.854 464.298 211.296 454.969 216.653L453.517 218.912C426.171 188.067 402.169 152.448 394.598 111.928Z" fill="#F0F0F0"/>
<path d="M432.681 1.40164C418.762 32.5529 415.012 67.298 421.964 100.702C423.497 107.849 425.674 114.966 429.366 121.316C433.013 127.478 438.243 132.551 444.513 136.007C450.295 139.348 456.596 142.096 461.464 146.784C466.596 151.725 468.882 158.469 468.691 165.515C468.458 174.137 465.141 182.16 461.625 189.893C457.72 198.48 453.529 207.337 453.782 216.99C453.813 218.16 451.996 218.139 451.966 216.971C451.525 200.176 463.668 186.687 466.373 170.571C467.636 163.051 466.64 155.105 461.353 149.276C456.73 144.178 450.235 141.339 444.351 138.007C438.174 134.509 432.915 130.186 429.006 124.194C425.007 118.064 422.547 111.017 420.838 103.941C417.083 87.8643 415.878 71.2975 417.269 54.8471C418.752 36.0635 423.437 17.672 431.122 0.468306C431.598 -0.596294 433.154 0.34399 432.681 1.40164H432.681Z" fill="white"/>
<path d="M419.092 90.0776C413.33 90.4832 407.61 88.8272 402.956 85.4052C398.301 81.9832 395.015 77.0182 393.683 71.3967C393.418 70.2584 395.174 69.7923 395.44 70.9321C396.67 76.1691 399.732 80.7938 404.073 83.9714C408.414 87.1491 413.747 88.6705 419.111 88.2609C420.277 88.1733 420.251 89.9905 419.092 90.0776Z" fill="white"/>
<path d="M441.359 134.7C449.182 125.853 453.383 114.383 453.125 102.577C453.098 101.407 454.915 101.427 454.941 102.596C455.187 114.882 450.791 126.81 442.63 135.998C441.851 136.873 440.584 135.57 441.359 134.7V134.7Z" fill="white"/>
<path d="M420.88 37.1916C423.142 37.4993 425.446 37.2402 427.583 36.4377C429.721 35.6351 431.626 34.3142 433.127 32.5936C433.894 31.709 435.16 33.0128 434.398 33.8916C432.731 35.7849 430.625 37.2411 428.266 38.133C425.906 39.025 423.364 39.3254 420.861 39.0082C420.623 38.9981 420.397 38.8976 420.23 38.7271C420.063 38.5566 419.967 38.3289 419.962 38.0904C419.966 37.8498 420.064 37.6205 420.236 37.4522C420.408 37.2839 420.639 37.1902 420.88 37.1915V37.1916Z" fill="white"/>
<path d="M567.56 34.2984C567.096 34.8644 566.633 35.4305 566.174 36.0113C559.986 43.6532 554.429 51.7851 549.557 60.327C549.17 60.9814 548.788 61.6504 548.42 62.3146C536.904 83.0189 529.331 105.681 526.088 129.15C524.806 138.49 524.236 147.914 524.384 157.34C524.588 170.358 525.846 184.457 521.856 196.43C521.453 197.684 520.974 198.912 520.42 200.106L456.386 220.508C456.217 220.481 456.052 220.469 455.882 220.443L453.363 221.374C453.321 220.889 453.289 220.384 453.247 219.899C453.222 219.617 453.211 219.331 453.185 219.049C453.173 218.86 453.161 218.671 453.14 218.501C453.135 218.438 453.132 218.374 453.132 218.326C453.11 218.156 453.108 217.996 453.09 217.84C452.9 215.02 452.724 212.196 452.577 209.362C452.573 209.347 452.573 209.347 452.582 209.328C451.483 187.744 452.176 165.879 456.166 144.813C456.287 144.18 456.402 143.532 456.551 142.888C458.402 133.403 461.025 124.085 464.395 115.027C466.256 110.073 468.366 105.217 470.718 100.477C476.818 88.2396 484.806 77.0384 494.387 67.2835C513.49 47.8402 538.599 34.7228 565.504 34.3098C566.192 34.2997 566.867 34.2939 567.56 34.2984Z" fill="#F0F0F0"/>
<path d="M567.675 35.1569C537.806 51.6493 513.893 77.1337 499.333 107.99C496.253 114.62 493.707 121.613 492.832 128.906C492.034 136.022 493.155 143.221 496.08 149.756C498.685 155.904 502.062 161.892 503.127 168.566C504.249 175.601 502.014 182.362 497.619 187.873C492.242 194.617 484.763 199.026 477.3 203.083C469.013 207.589 460.334 212.137 454.724 219.997C454.044 220.949 452.606 219.839 453.285 218.888C463.045 205.212 480.862 201.753 492.725 190.514C498.26 185.27 502.249 178.326 501.537 170.489C500.915 163.635 497.438 157.458 494.747 151.256C491.921 144.743 490.324 138.125 490.811 130.987C491.309 123.685 493.588 116.578 496.484 109.899C503.164 94.8015 512.177 80.8486 523.191 68.551C535.684 54.4462 550.498 42.5825 566.992 33.473C568.013 32.9096 568.689 34.5972 567.675 35.1569V35.1569Z" fill="white"/>
<path d="M503.436 97.7788C498.591 94.6331 495.021 89.8674 493.365 84.3329C491.709 78.7983 492.074 72.8553 494.396 67.5651C494.869 66.4963 496.552 67.1817 496.078 68.2519C493.907 73.1741 493.568 78.7101 495.12 83.8607C496.673 89.0113 500.016 93.4373 504.545 96.3398C505.529 96.9717 504.414 98.4071 503.436 97.7788H503.436Z" fill="white"/>
<path d="M494.349 146.813C505.921 144.459 516.182 137.831 523.084 128.248C523.767 127.298 525.205 128.408 524.523 129.357C517.322 139.315 506.63 146.192 494.582 148.615C493.434 148.845 493.207 147.042 494.349 146.813H494.349Z" fill="white"/>
<path d="M536.704 56.6285C538.326 58.2363 540.321 59.4163 542.511 60.0625C544.701 60.7087 547.017 60.8008 549.251 60.3307C550.396 60.0861 550.622 61.8894 549.484 62.1324C547.013 62.6404 544.456 62.5355 542.035 61.8269C539.613 61.1183 537.403 59.8276 535.595 58.0676C535.411 57.916 535.292 57.6999 535.261 57.4632C535.23 57.2266 535.291 56.9871 535.43 56.7936C535.578 56.6038 535.795 56.48 536.034 56.4491C536.272 56.4182 536.513 56.4827 536.704 56.6286V56.6285Z" fill="white"/>
<path d="M156.074 63.5218C152.536 61.0242 148.664 58.4197 144.335 58.5238C133.855 58.7758 128.205 74.1379 117.737 73.5977C111.061 73.2531 106.629 66.4712 100.413 64.0121C92.3202 60.8108 82.0216 67.0718 81.1387 75.7298L82.178 74.7785C113.636 82.4476 146.281 83.9557 178.313 79.2198C170.9 73.9871 163.487 68.7544 156.074 63.5218Z" fill="#F0F0F0"/>
<path d="M175.681 81.9999C195.764 81.9999 212.044 65.7199 212.044 45.6374C212.044 25.5549 195.764 9.27478 175.681 9.27478C155.599 9.27478 139.319 25.5549 139.319 45.6374C139.319 65.7199 155.599 81.9999 175.681 81.9999Z" fill="#DAAA63"/>
<path d="M260.797 38.6912C256.288 35.5082 251.354 32.189 245.837 32.3217C232.482 32.6429 225.281 52.2206 211.94 51.5321C203.432 51.093 197.784 42.45 189.862 39.3161C179.549 35.2363 166.424 43.2155 165.299 54.2493L166.623 53.0371C206.714 62.8106 248.318 64.7325 289.139 58.697C279.692 52.0284 270.244 45.3598 260.797 38.6912Z" fill="#F0F0F0"/>
<path d="M587.881 403.719L549.292 197.1C548.631 193.694 546.834 190.613 544.193 188.363C541.552 186.113 538.225 184.827 534.758 184.715C534.445 184.708 534.133 184.708 533.821 184.715L507.534 185.658L504.705 185.762L491.585 186.234L488.756 186.331L480.317 186.636L310.151 192.745C309.894 192.759 309.631 192.759 309.374 192.752L271.243 191.955L257.132 191.663L256.681 191.656L246.266 191.435L155.511 189.548L131.449 189.042L119.585 188.8L116.742 188.737L103.213 188.46L100.377 188.397L86.5362 188.113L83.7001 188.051L68.4933 187.732L66.1079 187.683L52.5446 187.399L50.4019 187.357H50.09C46.4892 187.372 43.0095 188.659 40.2661 190.991C37.5227 193.324 35.6922 196.551 35.0982 200.102L0.198179 414.509C-0.156234 416.68 -0.0342358 418.903 0.555723 421.024C1.14568 423.144 2.18948 425.11 3.61484 426.787C5.04019 428.463 6.81303 429.81 8.81051 430.734C10.808 431.657 12.9824 432.136 15.183 432.135H215.61C218.56 432.144 221.431 433.091 223.806 434.84L227.606 437.655C230.225 439.583 233.389 440.627 236.641 440.637H354.759C356.755 440.642 358.732 440.251 360.575 439.487C362.419 438.723 364.093 437.6 365.5 436.185C367.906 433.78 371.117 432.349 374.514 432.17L573.749 421.672C575.909 421.559 578.021 420.985 579.941 419.99C581.862 418.995 583.548 417.6 584.886 415.9C586.225 414.201 587.184 412.234 587.7 410.133C588.217 408.032 588.278 405.845 587.881 403.719V403.719Z" fill="#CCCCCC"/>
<path d="M556.302 398.102L534.792 184.993C534.785 184.903 534.771 184.805 534.757 184.715C534.355 181.31 532.674 178.185 530.056 175.971L483.784 137.424C481.772 135.735 479.271 134.736 476.649 134.574C455.478 133.215 347.852 128.181 308.126 162.664C306.921 163.713 305.5 164.486 303.964 164.926C302.428 165.367 300.815 165.466 299.236 165.216C297.655 164.96 296.147 164.365 294.816 163.472C293.485 162.579 292.363 161.41 291.526 160.043C288.148 154.778 283.722 150.265 278.524 146.785C276.19 145.165 273.758 143.689 271.243 142.368C269.017 141.196 266.597 140.059 263.962 138.963C261.695 138.02 259.275 137.112 256.681 136.245C243.236 131.752 225.262 128.396 201.242 127.272C191.277 126.801 180.446 126.738 169.053 127.078C158.652 127.383 147.599 128.014 136.206 128.957L136.039 128.964L58.9517 176.027C57.2235 177.104 55.763 178.561 54.6806 180.286C53.5982 182.011 52.9223 183.959 52.704 185.984L52.5445 187.399L28.0667 406.111C27.8553 407.97 28.0261 409.851 28.5687 411.641C29.1112 413.431 30.0141 415.091 31.2217 416.519C32.3973 417.912 33.8612 419.032 35.5122 419.803C37.1632 420.574 38.9619 420.977 40.7841 420.985H230.726C233.252 420.998 235.698 421.866 237.668 423.447L245.961 430.09C248.122 431.825 250.797 432.796 253.568 432.85L337.083 434.216H337.285C339.393 434.212 341.467 433.673 343.31 432.648L359.419 423.703C360.888 422.885 362.524 422.411 364.203 422.316L544.216 412.81C545.97 412.716 547.685 412.254 549.249 411.453C550.813 410.653 552.191 409.532 553.293 408.164C554.438 406.771 555.294 405.164 555.81 403.436C556.327 401.708 556.494 399.895 556.302 398.102Z" fill="#E6E6E6"/>
<path d="M493.469 359.67L490.949 326.5L480.319 186.64L478.739 165.95C478.339 160.516 475.93 155.425 471.981 151.67C468.032 147.915 462.827 145.765 457.379 145.64C418.429 144.64 347.899 146.4 313.289 169.59C309.439 172.207 304.77 173.335 300.151 172.765C295.531 172.194 291.276 169.964 288.179 166.49C283.39 161.233 277.64 156.939 271.239 153.84C266.554 151.491 261.685 149.531 256.679 147.98C242.029 143.3 223.542 140.457 201.219 139.45L148.239 139.14H148.149C144.479 139.143 140.948 140.544 138.273 143.057C135.598 145.57 133.981 149.007 133.749 152.67L131.449 189.04L121.399 348.54C121.211 351.511 121.629 354.49 122.627 357.295C123.625 360.1 125.183 362.673 127.206 364.857C129.228 367.042 131.674 368.793 134.394 370.003C137.114 371.214 140.052 371.859 143.029 371.9C231.959 373.22 270.809 391.99 287.749 407.49C291.351 410.795 295.952 412.803 300.825 413.198C305.697 413.593 310.562 412.351 314.649 409.67C345.399 389.53 396.519 383.93 437.209 383.06C449.669 382.8 461.149 382.97 470.769 383.31C473.861 383.421 476.941 382.879 479.809 381.717C482.676 380.556 485.266 378.802 487.409 376.57C489.552 374.338 491.2 371.679 492.244 368.767C493.288 365.855 493.705 362.755 493.469 359.67Z" fill="white"/>
<path d="M51.9829 405.933C51.9497 405.933 51.9151 405.931 51.8819 405.929C51.6964 405.916 51.5153 405.866 51.349 405.783C51.1826 405.7 51.0342 405.585 50.9123 405.445C50.7904 405.304 50.6974 405.141 50.6385 404.965C50.5797 404.789 50.5561 404.602 50.5692 404.417L65.8703 188.364C65.8812 188.178 65.9293 187.996 66.0116 187.828C66.094 187.661 66.2089 187.512 66.3498 187.39C66.4907 187.267 66.6546 187.174 66.8319 187.116C67.0092 187.058 67.1963 187.036 67.3822 187.052C67.5677 187.065 67.7487 187.114 67.9151 187.197C68.0814 187.28 68.2298 187.395 68.3517 187.536C68.4736 187.676 68.5667 187.839 68.6255 188.015C68.6844 188.192 68.7079 188.378 68.6948 188.563L53.3938 404.616C53.3688 404.973 53.2094 405.308 52.9476 405.552C52.6857 405.797 52.341 405.933 51.9829 405.933Z" fill="white"/>
<path d="M70.3962 397.434C70.363 397.434 70.3284 397.433 70.2952 397.43C70.1097 397.417 69.9286 397.368 69.7623 397.285C69.5959 397.202 69.4476 397.087 69.3257 396.946C69.2038 396.806 69.1107 396.643 69.0519 396.466C68.993 396.29 68.9694 396.104 68.9825 395.918L84.2836 179.866C84.2945 179.679 84.3426 179.497 84.4249 179.33C84.5073 179.163 84.6222 179.013 84.7631 178.891C84.904 178.769 85.0679 178.676 85.2452 178.618C85.4225 178.56 85.6096 178.538 85.7955 178.553C85.981 178.566 86.1621 178.616 86.3284 178.699C86.4948 178.782 86.6431 178.897 86.765 179.037C86.8869 179.177 86.98 179.341 87.0388 179.517C87.0977 179.693 87.1213 179.879 87.1082 180.065L71.8071 396.117C71.7822 396.475 71.6227 396.809 71.3609 397.054C71.0991 397.298 70.7543 397.434 70.3962 397.434Z" fill="white"/>
<path d="M87.393 393.185C87.3598 393.185 87.3252 393.184 87.292 393.181C87.1065 393.168 86.9255 393.118 86.7591 393.035C86.5928 392.952 86.4444 392.837 86.3225 392.697C86.2006 392.556 86.1075 392.393 86.0487 392.217C85.9898 392.041 85.9662 391.855 85.9794 391.669L101.28 175.616C101.291 175.43 101.339 175.248 101.422 175.081C101.504 174.913 101.619 174.764 101.76 174.642C101.901 174.519 102.065 174.427 102.242 174.369C102.419 174.31 102.606 174.288 102.792 174.304C102.978 174.317 103.159 174.366 103.325 174.449C103.492 174.532 103.64 174.647 103.762 174.788C103.884 174.928 103.977 175.091 104.036 175.268C104.095 175.444 104.118 175.63 104.105 175.816L88.8039 391.868C88.779 392.225 88.6195 392.56 88.3577 392.804C88.0959 393.049 87.7512 393.185 87.393 393.185Z" fill="white"/>
<path d="M104.39 384.687C104.357 384.687 104.322 384.685 104.289 384.682C104.104 384.669 103.923 384.62 103.756 384.537C103.59 384.454 103.441 384.339 103.32 384.198C103.198 384.058 103.105 383.895 103.046 383.719C102.987 383.542 102.963 383.356 102.976 383.171L118.278 167.118C118.288 166.932 118.336 166.75 118.419 166.582C118.501 166.415 118.616 166.266 118.757 166.143C118.898 166.021 119.062 165.928 119.239 165.87C119.416 165.812 119.603 165.79 119.789 165.805C119.975 165.818 120.156 165.868 120.322 165.951C120.489 166.034 120.637 166.149 120.759 166.289C120.881 166.43 120.974 166.593 121.033 166.769C121.092 166.946 121.115 167.132 121.102 167.317L105.801 383.37C105.776 383.727 105.617 384.062 105.355 384.306C105.093 384.55 104.748 384.686 104.39 384.687Z" fill="white"/>
<path d="M539.226 407.349C539.259 407.349 539.293 407.348 539.327 407.345C539.512 407.332 539.693 407.283 539.859 407.199C540.026 407.116 540.174 407.001 540.296 406.861C540.418 406.721 540.511 406.558 540.57 406.381C540.629 406.205 540.652 406.019 540.639 405.833L525.338 189.781C525.327 189.594 525.279 189.412 525.197 189.245C525.114 189.077 524.999 188.928 524.859 188.806C524.718 188.684 524.554 188.591 524.377 188.533C524.199 188.475 524.012 188.453 523.826 188.468C523.641 188.481 523.46 188.53 523.293 188.614C523.127 188.697 522.979 188.812 522.857 188.952C522.735 189.092 522.642 189.255 522.583 189.432C522.524 189.608 522.5 189.794 522.514 189.98L537.815 406.032C537.84 406.39 537.999 406.724 538.261 406.969C538.523 407.213 538.867 407.349 539.226 407.349Z" fill="white"/>
<path d="M520.812 394.602C520.845 394.602 520.88 394.6 520.913 394.597C521.099 394.584 521.28 394.535 521.446 394.452C521.612 394.369 521.761 394.254 521.883 394.113C522.005 393.973 522.098 393.81 522.157 393.634C522.215 393.457 522.239 393.271 522.226 393.086L506.925 177.033C506.914 176.847 506.866 176.665 506.783 176.497C506.701 176.33 506.586 176.181 506.445 176.058C506.304 175.936 506.14 175.843 505.963 175.785C505.786 175.727 505.599 175.705 505.413 175.72C505.227 175.733 505.046 175.783 504.88 175.866C504.714 175.949 504.565 176.064 504.443 176.204C504.321 176.345 504.228 176.508 504.169 176.684C504.111 176.86 504.087 177.047 504.1 177.232L519.401 393.285C519.426 393.642 519.586 393.977 519.848 394.221C520.109 394.465 520.454 394.601 520.812 394.602Z" fill="white"/>
<path d="M503.815 380.437C503.849 380.437 503.883 380.436 503.916 380.433C504.102 380.42 504.283 380.371 504.449 380.288C504.616 380.205 504.764 380.09 504.886 379.949C505.008 379.809 505.101 379.646 505.16 379.469C505.219 379.293 505.242 379.107 505.229 378.921L489.928 162.869C489.917 162.683 489.869 162.5 489.787 162.333C489.704 162.166 489.589 162.016 489.448 161.894C489.308 161.772 489.144 161.679 488.966 161.621C488.789 161.563 488.602 161.541 488.416 161.556C488.231 161.569 488.049 161.619 487.883 161.702C487.717 161.785 487.568 161.9 487.447 162.04C487.325 162.181 487.232 162.344 487.173 162.52C487.114 162.696 487.09 162.883 487.103 163.068L502.404 379.121C502.429 379.478 502.589 379.812 502.851 380.057C503.112 380.301 503.457 380.437 503.815 380.437Z" fill="white"/>
<path d="M156.214 187.946C188.141 177.76 223.76 180.457 254.007 194.807C262.637 198.88 270.787 203.9 278.308 209.775C280.436 211.445 283.463 208.458 281.313 206.77C253.532 185.222 218.626 174.986 183.608 178.118C173.92 178.985 164.355 180.907 155.084 183.849C152.489 184.677 153.598 188.781 156.214 187.946H156.214Z" fill="#3F3D56"/>
<path d="M331.898 211.423C361.582 195.821 397.128 192.419 429.402 201.275C438.603 203.794 447.495 207.33 455.914 211.816C458.326 213.103 460.475 209.436 458.059 208.147C427.299 191.734 390.375 187.956 356.784 197.105C347.414 199.662 338.35 203.233 329.753 207.754C327.332 209.027 329.477 212.696 331.898 211.423Z" fill="#3F3D56"/>
<path d="M331.898 239.751C361.582 224.149 397.128 220.747 429.402 229.603C438.603 232.122 447.495 235.658 455.914 240.145C458.326 241.432 460.475 237.765 458.059 236.475C427.299 220.062 390.375 216.284 356.784 225.433C347.414 227.99 338.35 231.561 329.753 236.082C327.332 237.355 329.477 241.024 331.898 239.751V239.751Z" fill="#3F3D56"/>
<path d="M459.098 266.56C459.12 266.195 459.032 265.832 458.846 265.518C458.659 265.204 458.382 264.953 458.051 264.799C433.409 251.896 405.47 246.662 377.829 249.772C377.656 249.786 377.496 249.814 377.309 249.828H377.302C377.132 249.843 376.963 249.868 376.796 249.904C360.355 251.796 344.407 256.712 329.754 264.403C329.435 264.594 329.17 264.864 328.987 265.187C328.803 265.511 328.707 265.876 328.707 266.248V319.094C328.712 319.419 328.791 319.739 328.939 320.029C329.086 320.319 329.297 320.572 329.556 320.768C329.815 320.964 330.116 321.099 330.435 321.162C330.754 321.226 331.083 321.215 331.398 321.132C332.049 320.945 332.701 320.765 333.367 320.592C348.18 316.582 363.387 314.203 378.717 313.498C379.043 313.484 379.368 313.47 379.708 313.456C392.194 312.92 404.703 313.37 417.118 314.801C417.378 314.816 417.638 314.844 417.895 314.885C418.533 314.954 419.185 315.03 419.823 315.113C420.079 315.141 420.322 315.169 420.558 315.211C423.04 315.522 425.502 315.876 427.97 316.258C431.535 316.826 435.099 317.46 438.663 318.158C438.885 318.199 439.114 318.255 439.343 318.296C445.063 319.433 450.756 320.751 456.422 322.207C456.737 322.289 457.067 322.297 457.386 322.233C457.706 322.168 458.006 322.032 458.265 321.834C458.524 321.637 458.735 321.383 458.882 321.092C459.028 320.801 459.107 320.48 459.112 320.155V266.643C459.114 266.615 459.109 266.586 459.098 266.56Z" fill="#3F3D56"/>
<path d="M381.16 252.654C379.604 251.891 377.819 251.735 376.154 252.214C375.418 252.49 374.744 252.909 374.172 253.448C373.599 253.986 373.139 254.633 372.819 255.35C372.242 256.726 371.872 258.18 371.721 259.664C371.633 260.248 371.628 260.985 372.214 261.258C372.427 261.335 372.658 261.353 372.88 261.309C373.102 261.265 373.308 261.161 373.476 261.008C373.779 260.709 374.029 260.361 374.214 259.978C375.233 258.392 376.636 257.089 378.291 256.189C379.947 255.289 381.803 254.82 383.688 254.827L385.257 255.452C384.023 254.34 382.645 253.399 381.16 252.654Z" fill="#FF6582"/>
<path d="M398.139 264.834C396.922 263.042 395.479 261.128 393.22 260.543C390.603 259.865 387.916 261.212 385.636 262.54C378.857 266.488 372.292 270.793 365.97 275.438L365.977 275.507L380.652 274.607C384.186 274.39 387.842 274.143 390.965 272.655C392.087 271.951 393.341 271.485 394.649 271.283C395.461 271.327 396.256 271.531 396.988 271.884C397.72 272.237 398.376 272.731 398.916 273.339C405.679 279.749 407.636 289.553 415.224 295.185C410.396 284.604 404.68 274.451 398.139 264.834Z" fill="white"/>
<path d="M379.711 313.455C379.371 313.469 379.045 313.484 378.719 313.498C376.354 312.648 373.932 311.897 371.482 311.246C369.895 310.821 368.28 310.438 366.666 310.113C364.838 309.716 362.997 309.404 361.156 309.135C357.65 308.625 354.117 308.327 350.575 308.243C350.548 308.246 350.521 308.243 350.496 308.235C350.47 308.226 350.446 308.213 350.426 308.195C350.406 308.177 350.39 308.155 350.379 308.13C350.368 308.105 350.362 308.079 350.362 308.052C350.362 308.025 350.368 307.998 350.379 307.973C350.39 307.949 350.406 307.927 350.426 307.909C350.446 307.891 350.47 307.877 350.496 307.869C350.521 307.86 350.548 307.858 350.575 307.86C351.028 307.86 351.482 307.875 351.921 307.903C355.47 308.034 359.008 308.379 362.516 308.937C364.343 309.234 366.17 309.589 367.983 309.985C369.626 310.353 371.269 310.764 372.884 311.217C375.192 311.869 377.468 312.615 379.711 313.455Z" fill="white"/>
<path d="M420.56 315.212C420.319 315.169 420.078 315.141 419.824 315.112C418.846 314.305 417.855 313.54 416.821 312.79C415.532 311.855 414.2 310.977 412.841 310.155C409.829 308.327 406.686 306.727 403.436 305.368C398.297 303.228 392.979 301.55 387.543 300.353C381.343 298.995 375.067 298.011 368.748 297.407C362.431 296.756 356.085 296.359 349.74 295.963C349.471 295.948 349.456 295.552 349.74 295.566C350.533 295.623 351.326 295.665 352.133 295.722C358.55 296.118 364.966 296.572 371.34 297.294C377.66 297.971 383.929 299.06 390.107 300.552C395.382 301.852 400.53 303.62 405.49 305.835C408.342 307.117 411.106 308.588 413.761 310.24C415.447 311.302 417.076 312.435 418.634 313.639C419.285 314.149 419.937 314.659 420.56 315.212Z" fill="white"/>
<path d="M417.897 314.886C417.639 314.844 417.379 314.816 417.118 314.801C416.821 314.56 416.509 314.333 416.198 314.107C414.017 312.546 411.742 311.122 409.385 309.843C407.244 308.68 405.046 307.626 402.798 306.685C397.662 304.539 392.343 302.861 386.906 301.671C380.706 300.312 374.429 299.328 368.11 298.725C361.793 298.073 355.448 297.676 349.102 297.28C348.833 297.251 348.833 296.869 349.102 296.883C349.91 296.94 350.703 296.982 351.496 297.039C357.912 297.435 364.329 297.889 370.702 298.611C377.022 299.289 383.291 300.377 389.47 301.869C394.745 303.166 399.893 304.935 404.852 307.152C406.722 308.002 408.549 308.923 410.334 309.928C412.98 311.381 415.509 313.039 417.897 314.886Z" fill="white"/>
<path d="M439.342 318.299C439.115 318.257 438.888 318.2 438.662 318.158C438.407 317.889 438.166 317.605 437.925 317.322C436.707 315.92 435.503 314.503 434.313 313.073C429.625 307.492 425.178 301.741 420.985 295.878C417.387 290.863 413.974 285.75 410.744 280.538C409.2 278.073 407.713 275.58 406.255 273.059C405.121 271.105 404.016 269.145 402.94 267.181C402.628 266.615 402.331 266.048 402.034 265.481C401.339 264.15 400.645 262.804 399.909 261.487C399.108 259.873 397.933 258.475 396.481 257.408C395.756 256.922 394.916 256.634 394.045 256.572C392.817 256.577 391.609 256.888 390.532 257.479C382.608 261.169 375.132 265.755 368.252 271.147C361.532 276.374 355.456 282.379 350.15 289.036C349.98 289.235 349.612 289.05 349.768 288.838C350.405 288.045 351.057 287.252 351.708 286.472C356.807 280.441 362.55 274.984 368.833 270.198C368.847 270.184 368.875 270.17 368.889 270.156C369.442 269.716 369.994 269.292 370.561 268.881C374.069 266.298 377.719 263.914 381.496 261.742C383.422 260.623 385.391 259.561 387.402 258.555C387.898 258.3 388.408 258.045 388.917 257.804C389.427 257.55 389.937 257.309 390.447 257.068C391.457 256.553 392.56 256.25 393.691 256.176C397.628 256.119 399.654 260.085 401.056 262.762C401.495 263.598 401.949 264.433 402.388 265.269C404.087 268.427 405.858 271.572 407.699 274.674C408.818 276.6 409.98 278.512 411.155 280.41C412.841 283.116 414.569 285.793 416.368 288.456C416.368 288.458 416.368 288.459 416.369 288.461C416.369 288.463 416.37 288.465 416.372 288.466C416.373 288.467 416.375 288.468 416.376 288.469C416.378 288.47 416.38 288.47 416.382 288.47C418.464 291.614 420.631 294.702 422.869 297.776C426.707 303.03 430.73 308.167 434.937 313.186C436.382 314.914 437.85 316.619 439.342 318.299Z" fill="white"/>
<path d="M459.115 312.053V312.704C457.712 311.062 456.282 309.433 454.865 307.804C454.271 307.124 453.676 306.444 453.081 305.764C450.559 302.903 448.024 300.051 445.475 297.209C442.911 294.376 440.347 291.543 437.755 288.725C437.132 288.045 436.509 287.365 435.871 286.685C435.361 286.114 434.807 285.583 434.214 285.099C433.616 284.601 432.928 284.221 432.189 283.98C431.337 283.744 430.439 283.734 429.583 283.951C428.605 284.178 427.67 284.532 426.721 284.83C425.744 285.155 424.781 285.467 423.803 285.778C421.849 286.416 419.908 287.053 417.954 287.691C417.929 287.701 417.904 287.705 417.878 287.705C417.851 287.705 417.826 287.699 417.802 287.688C417.778 287.678 417.757 287.662 417.739 287.643C417.721 287.624 417.708 287.602 417.699 287.577C417.688 287.551 417.682 287.522 417.684 287.493C417.685 287.464 417.693 287.435 417.706 287.41C417.72 287.384 417.739 287.361 417.762 287.344C417.785 287.326 417.812 287.314 417.84 287.308C418.322 287.153 418.818 286.997 419.314 286.841C421.282 286.189 423.237 285.552 425.206 284.915C426.183 284.589 427.16 284.277 428.138 283.966C429.044 283.621 430.002 283.43 430.971 283.399C432.553 283.513 434.036 284.209 435.135 285.354C435.744 285.92 436.296 286.515 436.849 287.124C437.5 287.832 438.152 288.541 438.803 289.249C441.424 292.11 444.025 294.981 446.608 297.861C449.2 300.75 451.768 303.644 454.313 306.543C454.497 306.756 454.681 306.968 454.865 307.181C456.296 308.795 457.698 310.424 459.115 312.053Z" fill="white"/>
<path d="M388.809 255.744L388.417 255.915C387.519 254.4 386.261 253.129 384.755 252.217C383.248 251.305 381.539 250.779 379.78 250.687C373.982 250.275 368.888 254.139 368.425 259.301C368.237 261.426 368.852 263.545 370.149 265.239L369.785 265.454C368.434 263.689 367.794 261.483 367.989 259.27C368.471 253.895 373.776 249.87 379.815 250.299C381.647 250.396 383.426 250.943 384.995 251.893C386.564 252.843 387.874 254.166 388.809 255.744Z" fill="#FF6582"/>
<path d="M360.155 266.187C358.633 265.525 356.975 265.234 355.319 265.34C353.663 265.445 352.055 265.943 350.63 266.793C355.834 267.591 360.994 268.663 366.086 270.004C363.977 268.904 362.328 267.181 360.155 266.187Z" fill="white"/>
<path d="M350.6 266.788L350.027 267.203C350.221 267.058 350.422 266.922 350.63 266.793L350.6 266.788Z" fill="white"/>
<path d="M433.994 287.708C433.459 287.019 432.746 286.489 431.932 286.176L431.126 286.204C437.448 296.041 445.73 304.469 455.455 310.961C448.302 303.21 441.148 295.459 433.994 287.708Z" fill="white"/>
<path d="M367.859 269.193C367.631 268.966 367.404 268.74 367.174 268.513C365.411 266.594 363.288 265.041 360.925 263.941C359.723 263.434 358.432 263.168 357.127 263.157C355.779 263.189 354.446 263.447 353.184 263.923C352.59 264.134 352.009 264.373 351.438 264.628C350.784 264.921 350.142 265.233 349.504 265.548C348.305 266.139 347.121 266.755 345.953 267.398C343.629 268.676 341.378 270.052 339.199 271.526C338.07 272.29 336.964 273.079 335.882 273.894C334.875 274.65 333.888 275.427 332.922 276.224C332.715 276.394 332.407 276.119 332.613 275.949C332.868 275.738 333.125 275.528 333.383 275.321C334.111 274.736 334.85 274.161 335.601 273.598C336.97 272.57 338.375 271.581 339.815 270.632C342.055 269.156 344.371 267.779 346.765 266.503C347.961 265.865 349.174 265.255 350.403 264.671C350.774 264.495 351.15 264.323 351.529 264.16C352.397 263.771 353.292 263.446 354.207 263.189C355.52 262.813 356.893 262.693 358.251 262.836C359.551 263.002 360.813 263.39 361.982 263.985C364.298 265.283 366.387 266.949 368.168 268.917C368.354 269.104 368.047 269.38 367.859 269.193Z" fill="white"/>
<path d="M156.214 216.275C188.141 206.088 223.76 208.785 254.007 223.135C262.637 227.209 270.787 232.229 278.308 238.103C280.436 239.773 283.463 236.786 281.313 235.098C253.532 213.551 218.626 203.315 183.608 206.447C173.92 207.314 164.355 209.235 155.084 212.177C152.489 213.005 153.598 217.109 156.214 216.275H156.214Z" fill="#3F3D56"/>
<path d="M156.214 244.603C188.141 234.417 223.76 237.113 254.007 251.464C262.637 255.537 270.787 260.557 278.308 266.431C280.436 268.101 283.463 265.114 281.313 263.427C253.532 241.879 218.626 231.643 183.608 234.775C173.92 235.642 164.355 237.563 155.084 240.505C152.489 241.333 153.598 245.437 156.214 244.603H156.214Z" fill="#3F3D56"/>
<path d="M156.214 272.931C188.141 262.745 223.76 265.441 254.007 279.792C262.637 283.865 270.787 288.885 278.308 294.759C280.436 296.429 283.463 293.442 281.313 291.755C253.532 270.207 218.626 259.971 183.608 263.103C173.92 263.97 164.355 265.891 155.084 268.833C152.489 269.661 153.598 273.766 156.214 272.931H156.214Z" fill="#3F3D56"/>
<path d="M156.214 301.259C188.141 291.073 223.76 293.77 254.007 308.12C262.637 312.193 270.787 317.213 278.308 323.088C280.436 324.758 283.463 321.771 281.313 320.083C253.532 298.535 218.626 288.299 183.608 291.431C173.92 292.298 164.355 294.22 155.084 297.162C152.489 297.99 153.598 302.094 156.214 301.259H156.214Z" fill="#3F3D56"/>
<path d="M156.214 329.587C188.141 319.401 223.76 322.098 254.007 336.448C262.637 340.522 270.787 345.542 278.308 351.416C280.436 353.086 283.463 350.099 281.313 348.411C253.532 326.864 218.626 316.627 183.608 319.76C173.92 320.626 164.355 322.548 155.084 325.49C152.489 326.318 153.598 330.422 156.214 329.587L156.214 329.587Z" fill="#3F3D56"/>
<path d="M271.243 142.368V221.765C271.243 223.117 268.885 224.247 265.703 224.552C265.148 224.608 264.565 224.636 263.962 224.636C262.21 224.669 260.467 224.385 258.817 223.797C258.511 223.678 258.214 223.536 257.929 223.374C257.139 222.909 256.681 222.361 256.681 221.765V136.245C259.275 137.112 261.695 138.02 263.962 138.963C266.597 140.059 269.017 141.196 271.243 142.368Z" fill="url(#paint0_linear_227:1309)"/>
<path d="M301.762 169.592H299.682V426.422H301.762V169.592Z" fill="#E6E6E6"/>
<path d="M487.419 376.56C485.274 378.792 482.683 380.547 479.814 381.71C476.945 382.873 473.863 383.419 470.769 383.31C461.149 382.97 449.669 382.8 437.209 383.06L437.139 383L491.139 313L493.469 359.67C493.702 362.752 493.284 365.849 492.242 368.759C491.199 371.669 489.556 374.327 487.419 376.56Z" fill="#F2F2F2"/>
<path d="M352.989 621.21L350.109 644.59L347.909 662.36L347.029 669.53H334.509V663.16L334.499 642.08V621.21H352.989Z" fill="#FFB6B6"/>
<path d="M265.689 618.76L262.139 629.72L259.289 638.51L258.799 640.02L256.849 646.03L252.729 658.74L250.679 665.07L239.289 662.87L238.379 662.7L239.119 658.88L239.569 656.55L244.549 630.73L245.359 626.57L245.489 625.9L245.859 623.97L247.539 615.26L259.679 617.6L261.079 617.87L265.689 618.76Z" fill="#FFB6B6"/>
<path d="M371.799 481.98C364.639 521.33 362.849 538.32 362.849 538.32C362.849 538.32 368.219 544.58 364.639 548.16C361.059 551.74 364.639 558.89 364.639 558.89L356.589 645.64L350.109 644.59L334.499 642.08L328.869 641.17L332.449 559.79C332.449 559.79 328.869 552.63 330.659 550.84C332.449 549.05 328.869 538.32 328.869 538.32L324.399 453.36L296.669 546.37C296.669 546.37 299.359 549.95 296.669 552.63C293.989 555.31 288.629 568.73 288.629 568.73L272.139 626.43L270.739 631.33L262.139 629.72L252.779 627.96L251.059 627.64L247.999 627.06L246.029 626.69L245.359 626.57L242.119 625.96L243.099 621.61L243.609 619.32L257.559 557.36L257.879 555.93L258.219 554.42C258.219 554.42 256.429 549.95 259.109 547.26C259.893 546.44 260.466 545.442 260.777 544.351C261.089 543.26 261.131 542.11 260.899 541C260.811 540.906 260.731 540.806 260.659 540.7C260.342 540.265 260.124 539.767 260.019 539.24C259.779 538.12 259.989 536.55 261.799 534.74C262.309 534.198 262.736 533.585 263.069 532.92C265.789 527.77 267.159 516.86 267.159 516.86C267.159 516.86 269.579 430.45 277.499 417.25C277.812 416.674 278.253 416.178 278.789 415.8C287.729 410.44 373.579 415.8 373.579 415.8C373.579 415.8 373.699 416.42 373.889 417.6C374.919 424.23 377.869 448.6 371.799 481.98Z" fill="#2F2E41"/>
<path d="M368.985 323.231L371.492 308.13L417.655 315.899L483.151 320.585C484.572 319.013 486.463 317.941 488.542 317.531C490.621 317.12 492.778 317.392 494.69 318.305C496.602 319.219 498.168 320.726 499.155 322.602C500.142 324.478 500.496 326.622 500.166 328.715C499.835 330.809 498.838 332.74 497.321 334.22C495.805 335.701 493.85 336.652 491.75 336.933C489.649 337.213 487.514 336.807 485.662 335.776C483.811 334.745 482.341 333.143 481.474 331.209L441.304 333.912L368.985 323.231Z" fill="#FFB6B6"/>
<path d="M334.479 312.779L337.738 299.298C337.738 299.298 355.438 296.04 369.432 299.157L422.077 309.26L417.816 341.084L334.479 312.779Z" fill="url(#paint1_linear_227:1309)"/>
<path d="M212.285 423.784L241.738 359.801L263.233 314.531L281.874 325.503L223.843 430.825C224.353 432.703 224.294 434.69 223.675 436.534C223.055 438.378 221.903 439.998 220.363 441.187C218.823 442.377 216.965 443.083 215.024 443.216C213.083 443.35 211.146 442.905 209.458 441.937C207.77 440.97 206.407 439.524 205.541 437.781C204.674 436.039 204.344 434.079 204.592 432.15C204.84 430.22 205.654 428.407 206.932 426.94C208.21 425.473 209.895 424.418 211.773 423.908C211.942 423.862 212.113 423.821 212.286 423.784L212.285 423.784Z" fill="#FFB6B6"/>
<path d="M297.228 295.135L282.932 288.575C282.932 288.575 280.397 287.696 274.93 295.265C269.464 302.834 222.44 374.256 222.44 374.256L252.301 387.754L297.228 295.135Z" fill="url(#paint2_linear_227:1309)"/>
<path d="M369.169 683.45L350.559 670.59V662.2L347.909 662.36L334.509 663.16L330.979 663.37L328.539 692.59L328.509 693H337.299L337.379 692.59L338.869 684.7L342.679 692.59L342.879 693H366.199C366.899 692.998 367.592 692.859 368.239 692.59C369.104 692.225 369.855 691.633 370.414 690.878C370.972 690.122 371.317 689.23 371.412 688.296C371.507 687.361 371.349 686.418 370.954 685.565C370.56 684.713 369.943 683.982 369.169 683.45H369.169Z" fill="#2F2E41"/>
<path d="M269.909 684.22L261.799 675.38L256.139 669.2L255.209 668.18L255.069 668.03L254.619 667.54L256.489 659.36L252.729 658.74L239.569 656.55L238.859 656.44L237.459 656.2L237.139 656.15L232.649 670.3L228.579 683.09L228.139 684.49L233.549 685.72L236.709 686.44L238.269 682.86L238.439 682.48L239.459 680.13V680.12L240.089 678.7L242.159 687.68L242.519 687.76L242.569 687.77L243.839 688.06L246.319 688.63L263.659 692.59L264.889 692.87C266.244 693.172 267.663 692.926 268.837 692.186C270.012 691.446 270.846 690.272 271.159 688.92C271.347 688.094 271.332 687.234 271.114 686.416C270.896 685.597 270.483 684.843 269.909 684.22Z" fill="#2F2E41"/>
<path d="M350.169 253.879C348.146 257.59 345.339 260.816 341.941 263.331C338.544 265.845 334.639 267.589 330.499 268.439C330.039 268.539 329.579 268.619 329.109 268.689C322.612 269.704 315.963 268.492 310.243 265.248C304.524 262.004 300.07 256.921 297.606 250.824C295.143 244.727 294.815 237.976 296.677 231.67C298.538 225.363 302.478 219.872 307.857 216.09C313.236 212.307 319.736 210.456 326.3 210.838C332.865 211.219 339.107 213.811 344.011 218.191C348.915 222.571 352.193 228.482 353.311 234.961C354.429 241.441 353.322 248.109 350.169 253.879Z" fill="#FFB6B6"/>
<path d="M338.589 214.349C329.059 207.795 320.667 206.796 313.773 208.655C312.88 207.273 311.626 206.16 310.148 205.436C304.772 191.889 288.41 183.753 274.368 187.708C260.236 191.689 250.485 207.343 253.144 221.783C254.792 230.733 260.425 238.483 262.691 247.298C267.076 264.36 256.378 283.906 239.641 289.406C255.488 292.588 272.931 282.908 278.616 267.778C281.377 260.429 281.544 252.405 281.895 244.562C281.987 239.149 282.65 233.76 283.873 228.486C284.48 226.12 285.338 223.825 286.432 221.641C288.814 216.839 292.771 213 297.642 210.764C297.206 212.113 297.097 213.547 297.324 214.947C297.551 216.346 298.108 217.672 298.948 218.814C295.232 223.469 293.209 228.504 293.209 231.519C285.489 245.629 296.529 257.749 310.639 265.469C316.267 268.564 322.765 269.697 329.109 268.689L329.699 266.169L330.499 268.439L333.169 276.049C336.249 277.539 339.302 279.172 342.329 280.949C341.179 275.549 340.249 270.159 339.609 264.889C338.722 257.716 341.812 247.038 344.04 240.544C345.422 236.542 346.131 232.338 346.139 228.104V227.919L348.309 234.889L356.209 231.519C354.739 223.089 356.209 213.519 338.589 214.349Z" fill="#2F2E41"/>
<path d="M277.892 407.753C278.93 403.644 278.93 399.341 277.892 395.233C276.103 388.972 279.68 386.29 279.68 386.29L280.574 289.705C284.353 285.927 294.476 285.865 300.139 286.159V281.906C300.139 280.339 300.761 278.837 301.869 277.73C302.976 276.622 304.478 276 306.044 276H332.233C333.8 276 335.302 276.622 336.409 277.73C337.517 278.837 338.139 280.339 338.139 281.906V287.004L345.82 287.125C359.196 288.121 370.899 301.331 370.899 301.331L359.273 346.046C359.273 346.046 362.85 382.712 367.322 387.184C371.793 391.655 370.005 394.338 370.005 394.338C370.005 394.338 367.322 404.176 372.688 407.753C378.053 411.33 374.476 417.59 374.476 417.59C374.476 417.59 277.892 419.379 275.209 416.696C272.526 414.013 277.892 407.753 277.892 407.753Z" fill="url(#paint3_linear_227:1309)"/>
<defs>
<linearGradient id="paint0_linear_227:1309" x1="263.962" y1="136.245" x2="263.962" y2="224.638" gradientUnits="userSpaceOnUse">
<stop stop-color="#F3E4D0"/>
<stop offset="1" stop-color="#DAAA63"/>
</linearGradient>
<linearGradient id="paint1_linear_227:1309" x1="378.278" y1="297.807" x2="378.278" y2="341.084" gradientUnits="userSpaceOnUse">
<stop stop-color="#F3E4D0"/>
<stop offset="1" stop-color="#DAAA63"/>
</linearGradient>
<linearGradient id="paint2_linear_227:1309" x1="259.834" y1="288.544" x2="259.834" y2="387.754" gradientUnits="userSpaceOnUse">
<stop stop-color="#F3E4D0"/>
<stop offset="1" stop-color="#DAAA63"/>
</linearGradient>
<linearGradient id="paint3_linear_227:1309" x1="325.051" y1="276" x2="325.051" y2="418.174" gradientUnits="userSpaceOnUse">
<stop stop-color="#F3E4D0"/>
<stop offset="1" stop-color="#DAAA63"/>
</linearGradient>
</defs>
</svg>
