<svg width="30" height="30" viewBox="0 0 30 30" fill="none" xmlns="http://www.w3.org/2000/svg">
<path d="M26.25 2.8125H3.75C2.71447 2.8125 1.875 3.65197 1.875 4.6875V5.625C1.875 6.66053 2.71447 7.5 3.75 7.5H26.25C27.2855 7.5 28.125 6.66053 28.125 5.625V4.6875C28.125 3.65197 27.2855 2.8125 26.25 2.8125Z" fill="#2C1810"/>
<path d="M4.36239 9.37501C4.29652 9.37465 4.23131 9.38818 4.17102 9.41472C4.11073 9.44126 4.05671 9.48021 4.01248 9.52902C3.96825 9.57784 3.93481 9.63543 3.91434 9.69804C3.89386 9.76065 3.88681 9.82687 3.89364 9.89239L5.43525 24.6908C5.43493 24.6951 5.43493 24.6994 5.43525 24.7037C5.51579 25.3882 5.84486 26.0193 6.35997 26.4771C6.87509 26.935 7.54039 27.1878 8.22958 27.1875H21.77C22.459 27.1875 23.124 26.9346 23.6389 26.4767C24.1538 26.0189 24.4826 25.388 24.5632 24.7037V24.6914L26.1024 9.89239C26.1093 9.82687 26.1022 9.76065 26.0817 9.69804C26.0613 9.63543 26.0278 9.57784 25.9836 9.52902C25.9394 9.48021 25.8853 9.44126 25.8251 9.41472C25.7648 9.38818 25.6996 9.37465 25.6337 9.37501H4.36239ZM18.944 19.9623C19.0332 20.0489 19.1042 20.1524 19.153 20.2666C19.2018 20.3809 19.2273 20.5038 19.2282 20.6281C19.2291 20.7523 19.2053 20.8755 19.1581 20.9905C19.1109 21.1055 19.0414 21.2099 18.9535 21.2978C18.8656 21.3856 18.7611 21.4551 18.6461 21.5022C18.5311 21.5493 18.4079 21.5731 18.2837 21.5722C18.1594 21.5712 18.0366 21.5456 17.9223 21.4968C17.808 21.4479 17.7046 21.3769 17.6181 21.2877L15.0001 18.6697L12.3815 21.2877C12.2049 21.4593 11.9678 21.5545 11.7216 21.5528C11.4753 21.551 11.2396 21.4525 11.0655 21.2784C10.8913 21.1043 10.7926 20.8686 10.7908 20.6224C10.7889 20.3761 10.884 20.139 11.0556 19.9623L13.6741 17.3438L11.0556 14.7252C10.884 14.5485 10.7889 14.3114 10.7908 14.0651C10.7926 13.8189 10.8913 13.5832 11.0655 13.4091C11.2396 13.235 11.4753 13.1365 11.7216 13.1347C11.9678 13.133 12.2049 13.2282 12.3815 13.3998L15.0001 16.0178L17.6181 13.3998C17.7947 13.2282 18.0317 13.133 18.278 13.1347C18.5243 13.1365 18.76 13.235 18.9341 13.4091C19.1083 13.5832 19.207 13.8189 19.2088 14.0651C19.2107 14.3114 19.1156 14.5485 18.944 14.7252L16.3255 17.3438L18.944 19.9623Z" fill="#2C1810"/>
</svg>
